<?xml version="1.0" encoding="UTF-8"?>
<svg id="_图层_1" data-name="图层 1" xmlns="http://www.w3.org/2000/svg" viewBox="0 0 22.6771653543 22.6771653543">
  <defs>
    <style>
      .cls-1 {
        fill: #fff;
      }

      .cls-2 {
        fill: #ff4ccd;
      }
    </style>
  </defs>
  <rect class="cls-1" x="-.0012695088" width="22.6771653543" height="22.6771653543" rx="2.8346456693" ry="2.8346456693"/>
  <g>
    <path class="cls-2" d="M9.8234185674,5.9168559004c-3.8285524111,0-6.9333813506,3.1048413823-6.9333813506,6.935421971,0,3.8285524111,3.1048289395,6.9333813506,6.9333813506,6.9333813506,3.8305805888,0,6.9354095282-3.1048289395,6.9354095282-6.9333813506,0-3.8305805888-3.1048289395-6.935421971-6.9354095282-6.935421971ZM5.2018486881,14.5851130539c-.958158413,0-1.734875803-.77671739-1.734875803-1.7328351825,0-.958158413,.77671739-1.734875803,1.734875803-1.734875803,.9561053497,0,1.7328351825,.77671739,1.7328351825,1.734875803,0,.9561177925-.7767298328,1.7328351825-1.7328351825,1.7328351825Zm4.6215698793,4.6236104998c-.9561177925,0-1.7328351825-.77671739-1.7328351825-1.734875803,0-.9561177925,.77671739-1.7328351825,1.7328351825-1.7328351825,.958158413,0,1.734875803,.77671739,1.734875803,1.7328351825,0,.958158413-.77671739,1.734875803-1.734875803,1.734875803Zm1.5024690393-6.9333813506v1.155911957h-.9235051934v.9234927505h-1.1558995142v-.9234927505h-.925533371v-1.155911957h.925533371v-.925533371h1.1558995142v.925533371h.9235051934Zm-1.5024690393-2.3138396489c-.9561177925,0-1.7328351825-.77671739-1.7328351825-1.7328351825,0-.958158413,.77671739-1.734875803,1.7328351825-1.734875803,.958158413,0,1.734875803,.77671739,1.734875803,1.734875803,0,.9561177925-.77671739,1.7328351825-1.734875803,1.7328351825Zm4.6236104998,4.6236104998c-.9561177925,0-1.7328351825-.77671739-1.7328351825-1.7328351825,0-.958158413,.77671739-1.734875803,1.7328351825-1.734875803,.958158413,0,1.734875803,.77671739,1.734875803,1.734875803,0,.9561177925-.77671739,1.7328351825-1.734875803,1.7328351825Z"/>
    <path class="cls-2" d="M12.8492289952,2.8915061324c-2.4137305098,0-4.5379915394,1.2333808783-5.7815506345,3.1048413823,.8501050703-.3404601064,1.7797196822-.5300511686,2.7541906162-.5300511686,.4566510455,0,.9031114314,.0407750811,1.3373405373,.1223252433-.028543801-.1243658638-.0428157016-.2527880828-.0428157016-.3853039857,0-.958158413,.77671739-1.734875803,1.7328351825-1.734875803,.958158413,0,1.734875803,.77671739,1.734875803,1.734875803,0,.5973169874-.3037538235,1.1253275355-.7644861099,1.4372313981,.8867989104,.5708138069,1.6431349812,1.3271498777,2.2180300291,2.2139487881,.3119038626-.4607198436,.8378737902-.7624454895,1.4351907776-.7624454895,.958158413,0,1.734875803,.77671739,1.734875803,1.734875803,0,.9561177925-.77671739,1.7328351825-1.734875803,1.7328351825-.13250346,0-.2609381219-.0142719005-.3852915429-.0428157016,.0815377194,.4342291059,.1223128005,.8806894918,.1223128005,1.3373405373,0,.9724303135-.1875504417,1.9020449255-.5300387258,2.7521499958,1.871460504-1.2415184746,3.1048289395-3.3657670614,3.1048289395-5.779510014,0-3.8305805888-3.1048289395-6.935421971-6.935421971-6.935421971Z"/>
  </g>
</svg>