<?xml version="1.0" encoding="UTF-8"?>
<svg id="_图层_1" data-name="图层 1" xmlns="http://www.w3.org/2000/svg" viewBox="0 0 22.6771653543 22.6771653543">
  <defs>
    <style>
      .cls-1 {
        fill: #fff;
      }

      .cls-2 {
        fill: #ffab19;
      }
    </style>
  </defs>
  <rect class="cls-1" x="-.0012695088" width="22.6771653543" height="22.6771653543" rx="2.8346456693" ry="2.8346456693"/>
  <path class="cls-2" d="M4.0751034218,12.5774740216c-.5987174726,.5735880514-1.5175521797-.3670971031-.9395921633-1.014978343,.5899766685-.6577150353,1.1788613876-1.3176144901,1.7688370141-1.9764219956,.2469159953-.2764147766,.7287302919-.2687669637,.978924219-.0065553426,.6249388431,.6500667014,1.2498766443,1.2990414535,1.8737224961,1.9491081549,.5976244814,.6249378012-.293895864,1.5645310064-.9133718347,1.0390147729,.3758368653,3.2405023164,3.9320854931,4.4062519769,6.4864659423,2.6461547249,1.4705717901-1.0182562748,2.7849086089,1.3329106369,1.3263552943,2.340241167-4.4423061008,3.0667854764-10.0164926786,.1748077474-10.5813409679-4.9765631384h0Zm3.9495660595-7.4533719463c4.4412136305-3.0678789235,10.011030718-.1769929484,10.5780639477,4.9711002661,.5976244814-.5724961021,1.5175511499,.3681890524,.9384999209,1.014978343-.5877915651,.6588069846-1.1766757633,1.3165220198-1.7677451625,1.9775149869-.2447310548,.2742293151-.7265453514,.2687664428-.978924219,.0065548217-.6238455914-.6500672224-1.2465987125-1.2979484622-1.8704445643-1.9491081549-.5987169516-.6227533816,.293895864-1.5634385361,.9111863732-1.0379217817-.3736519248-3.2394088042-3.9309930229-4.4062519769-6.4842815227-2.6439697844-1.4683863285,1.0160708133-2.7838153571-1.3329106369-1.3263547733-2.3391486967h0Z"/>
</svg>