<?xml version="1.0" encoding="UTF-8"?>
<svg id="_图层_1" data-name="图层 1" xmlns="http://www.w3.org/2000/svg" viewBox="0 0 22.6771653543 22.6771653543">
  <defs>
    <style>
      .cls-1 {
        fill: #fff;
      }

      .cls-2 {
        fill: #34cbf0;
      }
    </style>
  </defs>
  <rect class="cls-1" x="-.0012695088" y="0" width="22.6771653543" height="22.6771653543" rx="2.8346456693" ry="2.8346456693"/>
  <g>
    <rect class="cls-2" x="2.9946958418" y="11.0044368706" width="16.7591359059" height="8.8027659314" rx="2.7664093272" ry="2.7664093272"/>
    <path class="cls-1" d="M18.8188410689,15.4615299866c.0000045118,1.7267827074-1.3994124729,3.1262294533-3.1280583807,3.1262339699-1.3332433545,.0000034835-2.4715487421-.834875685-2.920246387-2.0099703147l-2.8880207532,.0000075459c-.4487139524,1.1750969745-1.5888557294,2.0099820963-2.9220990839,2.0099855798-1.7286234596,.0000045166-3.1280702055-1.3994349163-3.1280747173-3.1262176237-.0000045166-1.7286234596,1.3994349163-3.1280702055,3.1280583759-3.1280747221l8.7303662241-.000022811c1.7286459078-.0000045167,3.1280702055,1.3994349162,3.1280747221,3.1280583759Z"/>
    <circle class="cls-2" cx="6.9116613928" cy="15.4606378371" r="2.2947420072"/>
    <circle class="cls-2" cx="15.7363616828" cy="15.4123710343" r="2.2947420072"/>
    <path class="cls-2" d="M3.1123879831,6.6726167355l.2673101817,.2658322781c.2309022705,.2296256588,.5965291848,.2458945831,.8498607172,.0412804672,4.1106606647-3.3201520145,10.0251339263-3.3090054198,14.1663514194,.0023229181,.2543262865,.2033599638,.6198972695,.1851598524,.8496207486-.0456306544l.295584824-.2969577669c.2595859893-.2607917234,.2483841211-.6910892444-.0326065064-.928663393-4.4929956255-3.7987730045-11.8957211274-3.7877596039-16.3682700523,.0330254207-.2797631636,.2389945697-.2887501843,.6693343348-.0278513323,.9287907301Z"/>
    <path class="cls-2" d="M5.709980324,9.2663340794l.5131554184,.5155109872c.168801126,.1695759842,.4365096465,.1889468863,.6278166032,.0452406482,2.6332850749-1.9780749135,6.2849719352-1.9777448537,8.9369365793-.0083320342,.1912260753,.1420090894,.4575123409,.1218424072,.6255466852-.0469724394l.5019853792-.5043170497c.2045241336-.2054741272,.1837210214-.5460774152-.0466620936-.7220699107-3.2758903991-2.5024929742-7.8565162115-2.5025875163-11.1132329585-.0002888155-.2294526543,.1762999743-.2496861674,.516150981-.0455456132,.7212286141Z"/>
    <rect class="cls-2" x="7.8390281093" y="14.2272139018" width="7.0671711682" height="1.3291948239"/>
  </g>
</svg>