<?xml version="1.0" encoding="UTF-8"?>
<svg id="_图层_1" data-name="图层 1" xmlns="http://www.w3.org/2000/svg" viewBox="0 0 22.6771653543 22.6771653543">
  <defs>
    <style>
      .cls-1 {
        fill: #fff;
      }

      .cls-2 {
        fill: #f5c402;
      }
    </style>
  </defs>
  <rect class="cls-1" x="-.0012695088" width="22.6771653543" height="22.6771653543" rx="2.8346456693" ry="2.8346456693"/>
  <g>
    <path class="cls-2" d="M6.3066364484,3.4625899726v2.012781531h11.4057623879v11.4057627128h2.0127813685V3.4625899726H6.3066364484Z"/>
    <path class="cls-2" d="M4.9647818779,6.3140304071H2.9520003469v13.9217381237h13.921738936V6.3140304071H4.9647818779Zm9.8961760366,11.9089567552H4.9647818779V8.3268121005H14.8609579144v9.8961750618Z"/>
    <path class="cls-2" d="M8.4871495977,10.0041299076h5.199685202v1.174122465h-5.199685202v-1.174122465Zm-2.3482449299,0h1.174122465v1.174122465h-1.174122465v-1.174122465Zm2.3482449299,2.6837091412h5.199685202v1.1741231148h-5.199685202v-1.1741231148Zm-2.3482449299,0h1.174122465v1.1741231148h-1.174122465v-1.1741231148Zm2.3482449299,2.6837084913h5.199685202v1.1741231148h-5.199685202v-1.1741231148Zm-2.3482449299,0h1.174122465v1.1741231148h-1.174122465v-1.1741231148Z"/>
  </g>
</svg>