<?xml version="1.0" encoding="UTF-8"?>
<svg id="_图层_1" data-name="图层 1" xmlns="http://www.w3.org/2000/svg" viewBox="0 0 22.6771653543 22.6771653543">
  <defs>
    <style>
      .cls-1 {
        fill: #fff;
      }

      .cls-2 {
        fill: #0090f5;
      }
    </style>
  </defs>
  <rect class="cls-1" x="-.0012695088" width="22.6771653543" height="22.6771653543" rx="2.8346456693" ry="2.8346456693"/>
  <path class="cls-2" d="M11.3373440915,2.8690580344C6.6612349507,2.8690580344,2.8690656331,6.6612425494,2.8690656331,11.3398288615c0,4.6761091408,3.7921693176,8.4682784584,8.4682784584,8.4682784584,4.6785863121,0,8.4707556297-3.7921693176,8.4707556297-8.4682784584,0-4.6785863121-3.7921693176-8.4707708271-8.4707556297-8.4707708271ZM5.6926609746,13.4562753839c-1.1702734695,0-2.1189388911-.9486654216-2.1189388911-2.1164465224,0-1.1702734695,.9486654216-2.1189388911,2.1189388911-2.1189388911,1.1677659035,0,2.1164465224,.9486654216,2.1164465224,2.1189388911,0,1.1677811009-.9486806189,2.1164465224-2.1164465224,2.1164465224Zm5.6446831169,5.6471754856c-1.1677811009,0-2.1164465224-.9486654216-2.1164465224-2.1189388911,0-1.1677811009,.9486654216-2.1164465224,2.1164465224-2.1164465224,1.1702734695,0,2.1189388911,.9486654216,2.1189388911,2.1164465224,0,1.1702734695-.9486654216,2.1189388911-2.1189388911,2.1189388911Zm1.835082416-8.4682784584v1.4118052694h-1.1279487943v1.127933597h-1.4117900721v-1.127933597h-1.1304259656v-1.4118052694h1.1304259656v-1.1304259656h1.4117900721v1.1304259656h1.1279487943Zm-1.835082416-2.8260725128c-1.1677811009,0-2.1164465224-.9486654216-2.1164465224-2.1164465224,0-1.1702734695,.9486654216-2.1189388911,2.1164465224-2.1189388911,1.1702734695,0,2.1189388911,.9486654216,2.1189388911,2.1189388911,0,1.1677811009-.9486654216,2.1164465224-2.1189388911,2.1164465224Zm5.6471754856,5.6471754856c-1.1677811009,0-2.1164465224-.9486654216-2.1164465224-2.1164465224,0-1.1702734695,.9486654216-2.1189388911,2.1164465224-2.1189388911,1.1702734695,0,2.1189388911,.9486654216,2.1189388911,2.1189388911,0,1.1677811009-.9486654216,2.1164465224-2.1189388911,2.1164465224Z"/>
</svg>