<?xml version="1.0" standalone="no"?><!DOCTYPE svg PUBLIC "-//W3C//DTD SVG 1.1//EN" "http://www.w3.org/Graphics/SVG/1.1/DTD/svg11.dtd"><svg t="1774320562340" class="icon" viewBox="0 0 1024 1024" version="1.1" xmlns="http://www.w3.org/2000/svg" p-id="10874" xmlns:xlink="http://www.w3.org/1999/xlink" width="200" height="200"><path d="M449.79 887.137c-77.641 0-150.638-30.049-205.545-84.61-54.933-54.587-85.186-127.173-85.186-204.386 0-77.21 30.253-149.795 85.186-204.383 54.908-54.564 127.905-84.614 205.545-84.614 77.636 0 150.633 30.05 205.542 84.614 54.936 54.589 85.189 127.174 85.189 204.383 0 77.212-30.254 149.798-85.189 204.386-54.909 54.561-127.905 84.61-205.542 84.61z m0-547.993c-143.768 0-260.73 116.186-260.73 258.997s116.963 258.996 260.73 258.996 260.731-116.186 260.731-258.996c0-142.812-116.963-258.997-260.731-258.997z" fill="#ed5283" p-id="10875"></path><path d="M861.931 357.995c-48.372-104.61-139.648-174.47-242.787-198.896l-29.734 28.358c102.521 16.162 195.196 81.606 242.404 183.78 16.326 35.337 25.504 72.187 28.831 109.038l29.874-28.5c-5.31-31.742-14.481-63.276-28.588-93.78zM634.796 248.767c-10.499-5.462-21.159-10.276-31.908-14.606l-30.654 30.133c14.796 5.119 29.478 10.966 43.782 18.412 77.786 40.44 131.925 108.27 157.109 185.551l30.229-29.726c-30.074-78.957-87.722-147.706-168.558-189.764zM449.794 400.255c-109.979 0-199.14 88.592-199.14 197.885 0 109.284 89.161 197.886 199.14 197.886 109.98 0 199.133-88.602 199.133-197.886 0-109.293-89.153-197.885-199.133-197.885z m95.159 168.514c-22.245 0-40.28-17.892-40.28-39.956 0-22.074 18.035-39.957 40.28-39.957 22.246 0 40.282 17.883 40.282 39.957 0 22.064-18.036 39.956-40.282 39.956z" fill="#ed5283" p-id="10876"></path></svg>