<?xml version="1.0" encoding="UTF-8"?>
<svg id="_图层_1" data-name="图层 1" xmlns="http://www.w3.org/2000/svg" viewBox="0 0 22.6771653543 22.6771653543">
  <defs>
    <style>
      .cls-1 {
        fill: #fff;
      }

      .cls-2 {
        fill: #ff6680;
      }

      .cls-3 {
        fill: #f35;
      }
    </style>
  </defs>
  <rect class="cls-1" x="-.0012695088" y="0" width="22.6771653543" height="22.6771653543" rx="2.8346456693" ry="2.8346456693"/>
  <g>
    <path class="cls-2" d="M19.7846509662,6.7433582674V15.0123039426c0,.4949779708-.4012589269,.8962368977-.8962368977,.8962368977h-5.576503399c-.1115781438,0-.2189088565,.0427839265-.2998900685,.1195415024l-1.6577713431,1.5713090284c-.0809812121,.0767575759-.1883119248,.1195415024-.2998900685,.1195415024h-3.4697317598c-.1116305271,0-.2190075245-.0428240099-.3000000514-.1196457853l-1.6563974973-1.5711004626c-.0809925269-.0768217754-.1883695242-.1196457853-.3000000514-.1196457853h-1.5438802867c-.4949779708,0-.8962368977-.4012589269-.8962368977-.8962368977V6.7433582674c0-.4949779708,.4012589269-.8962368977,.8962368977-.8962368977h1.5438802867c.1116305271,0,.2190075245,.0428240099,.3000000514,.1196457853l1.6563974973,1.5711004626c.0809925269,.0768217754,.1883695242,.1196457853,.3000000514,.1196457853h3.4697317598c.1115781438,0,.2189088565-.0427839265,.2998900685-.1195415024l1.6577713431-1.5713090284c.0809812121-.0767575759,.1883119248-.1195415024,.2998900685-.1195415024h5.576503399c.4949779708,0,.8962368977,.4012589269,.8962368977,.8962368977Z"/>
    <rect class="cls-3" x="13.9941929286" y="7.6290465446" width="4.5739388952" height="6.576013961"/>
  </g>
</svg>