<?xml version="1.0" standalone="no"?><!DOCTYPE svg PUBLIC "-//W3C//DTD SVG 1.1//EN" "http://www.w3.org/Graphics/SVG/1.1/DTD/svg11.dtd"><svg t="1766648971260" class="icon" viewBox="0 0 1024 1024" version="1.1" xmlns="http://www.w3.org/2000/svg" p-id="25496" xmlns:xlink="http://www.w3.org/1999/xlink" width="200" height="200"><path d="M910.08 255.786667H610.986667C560.085333 179.669333 459.946667 128 344.704 128 192.853333 128 67.285333 217.856 45.824 334.805333A109.354667 109.354667 0 0 0 42.666667 360.448v372.906667c0 57.6 47.402667 104.661333 105.386666 104.661333h85.333334v0.298667a71.68 71.68 0 0 0 71.936 71.381333c39.808 0 71.936-31.914667 71.936-71.424v-0.256H910.08c57.984 0 105.386667-47.061333 105.386667-104.618667V360.448c0-57.557333-47.402667-104.661333-105.386667-104.661333z m-22.912 293.290666c0 65.92-54.4 119.936-120.789333 119.936h-98.261334c-66.389333 0-120.789333-54.016-120.789333-119.936v-0.768c0-65.962667 54.4-119.978667 120.746667-119.978666h98.304c66.389333 0 120.746667 54.016 120.746666 119.978666v0.768zM162.133333 477.866667a42.666667 42.666667 0 0 1 42.666667-42.666667h187.733333a42.666667 42.666667 0 1 1 0 85.333333H204.8a42.666667 42.666667 0 0 1-42.666667-42.666666z m42.666667 110.933333a42.666667 42.666667 0 1 0 0 85.333333h119.466667a42.666667 42.666667 0 1 0 0-85.333333H204.8z" fill="#ff6680" p-id="25497"></path></svg>