<?xml version="1.0" standalone="no"?><!DOCTYPE svg PUBLIC "-//W3C//DTD SVG 1.1//EN" "http://www.w3.org/Graphics/SVG/1.1/DTD/svg11.dtd"><svg t="1766648696900" class="icon" viewBox="0 0 1024 1024" version="1.1" xmlns="http://www.w3.org/2000/svg" p-id="16044" xmlns:xlink="http://www.w3.org/1999/xlink" width="200" height="200"><path d="M512 576c217.6 0 394.24-145.92 394.24-327.68 0-10.24-7.68-17.92-17.92-17.92H135.68c-10.24 0-17.92 7.68-17.92 17.92 0 181.76 176.64 327.68 394.24 327.68zM171.52 304.64c-2.56-10.24 2.56-23.04 15.36-25.6 10.24-2.56 23.04 2.56 25.6 15.36 5.12 20.48 15.36 40.96 28.16 58.88 7.68 10.24 5.12 23.04-5.12 30.72-2.56 2.56-7.68 5.12-12.8 5.12-7.68 0-12.8-2.56-17.92-7.68-15.36-25.6-28.16-51.2-33.28-76.8zM988.16 110.08H35.84C15.36 110.08 0 125.44 0 145.92 0 163.84 15.36 179.2 35.84 179.2h952.32c20.48 0 35.84-15.36 35.84-33.28s-15.36-35.84-35.84-35.84zM512 655.36c-23.04 0-43.52 17.92-43.52 43.52v174.08c0 23.04 17.92 43.52 43.52 43.52s43.52-17.92 43.52-43.52v-174.08c0-25.6-20.48-43.52-43.52-43.52zM872.96 532.48c-17.92-17.92-43.52-17.92-61.44 0s-17.92 43.52 0 61.44l122.88 122.88c7.68 7.68 20.48 12.8 30.72 12.8 10.24 0 23.04-5.12 30.72-12.8 17.92-17.92 17.92-43.52 0-61.44l-122.88-122.88zM207.36 535.04c-17.92-17.92-43.52-17.92-61.44 0L23.04 657.92c-17.92 17.92-17.92 43.52 0 61.44 7.68 7.68 20.48 12.8 30.72 12.8s23.04-5.12 30.72-12.8l122.88-122.88c15.36-17.92 15.36-43.52 0-61.44zM343.04 627.2c-23.04-10.24-46.08 0-56.32 23.04l-66.56 161.28c-10.24 23.04 0 46.08 23.04 56.32 5.12 2.56 10.24 2.56 17.92 2.56 17.92 0 33.28-10.24 38.4-25.6l66.56-161.28c10.24-23.04 0-48.64-23.04-56.32zM721.92 650.24c-7.68-23.04-33.28-33.28-56.32-23.04-23.04 7.68-33.28 33.28-23.04 56.32l64 161.28c7.68 17.92 23.04 28.16 40.96 28.16 5.12 0 10.24 0 15.36-2.56 23.04-7.68 33.28-33.28 23.04-56.32l-64-163.84z" fill="#9966ff" p-id="16045"></path></svg>