<?xml version="1.0" standalone="no"?><!DOCTYPE svg PUBLIC "-//W3C//DTD SVG 1.1//EN" "http://www.w3.org/Graphics/SVG/1.1/DTD/svg11.dtd"><svg t="1766648917537" class="icon" viewBox="0 0 1024 1024" version="1.1" xmlns="http://www.w3.org/2000/svg" p-id="22975" xmlns:xlink="http://www.w3.org/1999/xlink" width="200" height="200"><path d="M554.666667 392.533333v34.133334h-85.333334V298.666667h42.666667c119.466667 0 213.333333 93.866667 213.333333 213.333333s-93.866667 213.333333-213.333333 213.333333-213.333333-93.866667-213.333333-213.333333c0-64 25.6-119.466667 72.533333-157.866667l4.266667 4.266667 157.866666 140.8-51.2 51.2L392.533333 469.333333c-4.266667 12.8-8.533333 29.866667-8.533333 42.666667 0 72.533333 55.466667 128 128 128s128-55.466667 128-128c0-55.466667-34.133333-102.4-85.333333-119.466667z m243.2 302.933334l-64-64c21.333333-34.133333 34.133333-76.8 34.133333-119.466667 0-140.8-115.2-256-256-256s-256 115.2-256 256 115.2 256 256 256c59.733333 0 115.2-21.333333 157.866667-55.466667l59.733333 59.733334C669.866667 823.466667 597.333333 853.333333 512 853.333333c-187.733333 0-341.333333-153.6-341.333333-341.333333s153.6-341.333333 341.333333-341.333333 341.333333 153.6 341.333333 341.333333c0 68.266667-21.333333 132.266667-55.466666 183.466667z" fill="#59c059" p-id="22976"></path></svg>