<?xml version="1.0" encoding="UTF-8"?>
<svg id="_图层_1" data-name="图层 1" xmlns="http://www.w3.org/2000/svg" viewBox="0 0 22.6771653543 22.6771653543">
  <defs>
    <style>
      .cls-1 {
        fill: #fff;
      }

      .cls-2 {
        fill: #ff8c1a;
      }
    </style>
  </defs>
  <rect class="cls-1" x="-.0012695088" y="0" width="22.6771653543" height="22.6771653543" rx="2.8346456693" ry="2.8346456693"/>
  <g>
    <rect class="cls-2" x="2.888112647" y="2.8903134956" width="16.8965383172" height="16.8965383475" rx="2.9058406801" ry="2.9058406801"/>
    <path class="cls-1" d="M16.4892906328,9.4539343592c-.3142141411-.0022426094-.61129784-.087054788-.8914930713-.2213619241-.6263017387-.3021610331-1.3357632259-.5387619307-1.9530826559,.2175977859-.500492898,.608348035-.7843471154,.9867049351-.7843471154,.9867049351,0,0,.4459364626,2.4012488428,.8683588457,3.4627203972s1.1100341274,2.0421439858,2.7170083115,1.6566913032c.1822676516-.0483146131,.3645333317-.0966292403,.5799936604-.1612441342-.268496221,.5438501785-1.6351976364,2.022550716-3.5541413809,2.0915466622-1.9520203699,.0687598717-2.8218997657-.8635979466-3.5776822093-3.8789783755-.801591645,1.0858118595-1.6197216027,2.1715056818-2.454152827,3.2240068198-.7330817046,.755533498-1.94055742,.7799918404-2.696090918,.0469101358-.0164192897-.0166563429-.0493769062-.0334287516-.0656781727-.0666214358-.7550613771-.7992310125-.7460909678-2.0560836341,.0203014652-2.844457697,.0166553642-.0164202825,.0498490271-.0327205563,.0666224145-.06567718,.3163377275-.2954332261,.7146548802-.4910503608,1.1451034308-.5541328122,.5132541944-.0790286345,1.0587568242-.0420589341,1.5541743523,.060707948,1.3376517305,.2741617419,2.3042655188-.7608587991,1.9334626373-2.1031137715-.1774273635-.6297246573-.3548557128-1.2594493216-.5488203962-1.8892929949-.7601476536-2.4034904453-3.5392802969-2.3075565153-3.5392802969-2.3075565153,0,0,.9357807439-1.3494687782,2.9395376668-1.7155503876,1.8216082943-.334305302,3.3547591293,.3547109196,4.323760292,3.6196886313,.4845467149-.6911536788,.9025880527-1.3331665259,1.3533499538-1.9253313316,.3005085889-.3947762039,.6181456486-.8721219911,.9842133943-1.1837394393,.5157328642-.4263174296,.947833852-.7209244301,1.592796504-.7163212023,1.1410903471,.0081441907,2.0603466491,.9739307607,2.0519663909,2.1480967474,.0081580615,1.1742830383-.9247899219,2.1268510404-2.065880276,2.1187078354Z"/>
  </g>
</svg>