<?xml version="1.0" standalone="no"?><!DOCTYPE svg PUBLIC "-//W3C//DTD SVG 1.1//EN" "http://www.w3.org/Graphics/SVG/1.1/DTD/svg11.dtd"><svg t="1766648752335" class="icon" viewBox="0 0 1024 1024" version="1.1" xmlns="http://www.w3.org/2000/svg" p-id="17085" xmlns:xlink="http://www.w3.org/1999/xlink" width="200" height="200"><path d="M941.452 11.998 320.806 152.624c0 0-46.548 10.652-46.548 46.876l0 635.318c-23.294-6.55-49.612-10.31-77.58-10.31C102.414 824.508 26 866.478 26 918.25S102.414 1012 196.678 1012c94.262 0 170.678-41.978 170.678-93.75L367.356 420.178l527.548-115.868 0 389.892c-23.294-6.56-49.614-10.336-77.58-10.336-94.262 0-170.676 41.988-170.676 93.76s76.414 93.75 170.676 93.75c94.264 0 170.678-41.978 170.678-93.75L988.002 58.874C988 32.988 967.16 11.998 941.452 11.998z" p-id="17086" fill="#cf63cf"></path></svg>