<?xml version="1.0" encoding="UTF-8"?>
<svg id="_图层_1" data-name="图层 1" xmlns="http://www.w3.org/2000/svg" viewBox="0 0 22.6771653543 22.6771653543">
  <defs>
    <style>
      .cls-1 {
        fill: #fff;
      }

      .cls-2 {
        fill: #be60ef;
      }
    </style>
  </defs>
  <rect class="cls-1" x="-.0012695088" width="22.6771653543" height="22.6771653543" rx="2.8346456693" ry="2.8346456693"/>
  <path class="cls-2" d="M11.1614948943,4.6586485078l-.109356397,.2335418986-3.6343608689,7.7657607033c-.0769218553-.0636341103-.1575486299-.1241807879-.2415692238-.1813289326-.2214938404-.1513690508-.4695490298-.2641239807-.7376843162-.3354837434-.253617282-.0793870879-.5257733015-.1217108417-.7966896342-.1217108417-.0772282418,0-.15476287,.0033985329-.2319911118,.0101955986-.3438221686,.0299645955-.6709580594,.1146073895-.9718389877,.2517648223-.3055191478,.1390098924-.5782879402,.3345504431-.8108965385,.5807531728-.233848285,.248059903-.412400885,.5365816729-.5307131939,.8584712849-.1201671253,.3262120178-.1655783119,.6502604758-.1353049731,.9631894623,.0299645955,.3098415537,.1248006313,.6054714894,.2814206746,.8785513819,.1526016671,.26504314,.3592664029,.5103219967,.614118658,.7284125906,.2492901625,.2134618015,.5449200982,.4009703134,.8785466683,.5572792565,.2962474223,.138703506,.602379343,.2088282956,.910057337,.2088282956,.0370727613,0,.074140809-.0009285866,.1112088567-.0027810463,.3376425895-.0185340238,.6632371207-.1065753507,.9675165818-.2619604209,.2968649088-.1516754372,.5721083611-.3595751462,.8179999907-.6178259341,.2449677566-.2573222013,.4451465268-.5504821908,.595586991-.8717496026l.1708269476-.3651372388,3.6550584525-7.927320639,5.1193076133,1.3450035516-2.496634826,5.3346171609c-.2529997954-.2508362357-.561606376-.4618233774-.9224164953-.6307978654-.2588682745-.1210933552-.53287204-.1825686194-.8136775848-.1825686194-.0864952537,0-.174842967,.0058684791-.2628842939,.0172990507-.3558655132,.0466461597-.6978352222,.163417109-1.0160152012,.3466032149-.3129289865,.1800939595-.5961997639,.414248631-.8420961072,.696289149-.2480551894,.2845057505-.433093755,.5900201847-.5498647043,.9075826772-.1223283283,.3320852105-.1606360627,.6533526222-.1136788029,.9545446506,.0460286731,.2953188356,.1572375298,.5711797744,.3302280372,.8201635505,.1661934417,.239405664,.3867586954,.4581184581,.6552050819,.6496429893,.254541155,.1822575193,.5412151789,.3481445745,.8513631191,.4933340461,.363897552,.1702094611,.71142464,.2567047148,1.0330031518,.2567047148,.1294364941,0,.2570158148-.0142069043,.3790377567-.0417015536,.4012766998-.0908223732,.7491148878-.2474377028,1.0336206384-.4652219102,.3169450059-.2387928911,.6033079297-.5495583178,.8488931729-.9221053952l.0126655448-.0188451239,.0092670119-.0203864835,4.3494951418-9.2933375879,.1569311434-.3351726433-.3577226865-.0945272925-7.9566724616-2.1027679649-.2492901625-.0658023837Z"/>
</svg>