<?xml version="1.0" encoding="utf-8"?>
<!-- Generator: Adobe Illustrator 27.6.1, SVG Export Plug-In . SVG Version: 6.00 Build 0)  -->
<svg version="1.1" id="图层_1" xmlns="http://www.w3.org/2000/svg" xmlns:xlink="http://www.w3.org/1999/xlink" x="0px" y="0px"
	 viewBox="0 0 141.73 141.73" style="enable-background:new 0 0 141.73 141.73;" xml:space="preserve">
<style type="text/css">
	.st0{fill:#FFFFFF;}
</style>
<g>
	<g>
		<path class="st0" d="M93.1,65.86c-0.34-1.58-0.86-3.1-1.54-4.55c-3.6-7.82-11.51-13.24-20.7-13.24c-9.18,0-17.09,5.42-20.69,13.24
			c-0.68,1.44-1.2,2.96-1.54,4.56c-0.37,1.61-0.56,3.28-0.56,4.99c0,1.71,0.19,3.38,0.56,4.99c0.34,1.6,0.86,3.12,1.54,4.56
			c3.6,7.83,11.5,13.25,20.69,13.25c9.18,0,17.1-5.42,20.7-13.25c0.68-1.43,1.2-2.96,1.54-4.55c0.37-1.61,0.56-3.29,0.56-5
			C93.66,69.14,93.47,67.47,93.1,65.86z M93.1,65.86c-0.34-1.58-0.86-3.1-1.54-4.55c-3.6-7.82-11.51-13.24-20.7-13.24
			c-9.18,0-17.09,5.42-20.69,13.24c-0.68,1.44-1.2,2.96-1.54,4.56c-0.37,1.61-0.56,3.28-0.56,4.99c0,1.71,0.19,3.38,0.56,4.99
			c0.34,1.6,0.86,3.12,1.54,4.56c3.6,7.83,11.5,13.25,20.69,13.25c9.18,0,17.1-5.42,20.7-13.25c0.68-1.43,1.2-2.96,1.54-4.55
			c0.37-1.61,0.56-3.29,0.56-5C93.66,69.14,93.47,67.47,93.1,65.86z M110.42,62.29c-1.77-1.78-4-2.94-6.47-3.38l-0.3-0.05
			l-0.11-0.29c-5.1-13.52-18.23-22.59-32.67-22.59c-14.43,0-27.55,9.05-32.66,22.53l-0.11,0.3l-0.31,0.04
			c-5.95,0.86-10.45,6.03-10.45,12.03c0,3.23,1.27,6.28,3.58,8.58c1.88,1.89,4.26,3.08,6.87,3.45l0.31,0.04l0.11,0.3
			c5.11,13.49,18.23,22.54,32.66,22.54c14.44,0,27.57-9.09,32.66-22.6l0.11-0.29l0.3-0.05c5.82-1.01,10.05-6.06,10.05-11.97
			C113.99,67.63,112.73,64.59,110.42,62.29z M110.16,71.38c0,0.03,0,0.05-0.01,0.09c-0.01,0.22-0.03,0.43-0.06,0.64
			c0,0.05-0.01,0.11-0.02,0.17c-0.02,0.14-0.04,0.28-0.06,0.41c-0.03,0.16-0.08,0.33-0.12,0.5c-0.04,0.16-0.09,0.32-0.14,0.49
			c-0.04,0.13-0.09,0.26-0.13,0.39c-0.05,0.14-0.11,0.28-0.17,0.42c-0.06,0.16-0.14,0.33-0.23,0.49c-0.04,0.11-0.1,0.22-0.16,0.32
			c-0.06,0.13-0.14,0.26-0.22,0.39c-1.64,2.84-4.71,4.74-8.2,4.74h-1.28c-3.99,11.91-15.24,20.49-28.49,20.49
			c-13.25,0-24.5-8.58-28.49-20.49H41.1c-2.63,0-5.02-1.08-6.75-2.8c-0.66-0.67-1.22-1.42-1.65-2.26c-0.11-0.19-0.2-0.39-0.29-0.58
			c-0.1-0.22-0.18-0.43-0.27-0.65c-0.11-0.31-0.23-0.61-0.3-0.94l-0.12-0.5c-0.02-0.13-0.04-0.27-0.06-0.41
			c-0.01-0.06-0.02-0.12-0.02-0.17c-0.03-0.24-0.05-0.47-0.08-0.72l-0.01-0.52c0-0.17,0-0.34,0.01-0.52
			c0.02-0.25,0.04-0.49,0.08-0.72c0-0.05,0.01-0.11,0.02-0.17c0.02-0.14,0.04-0.28,0.06-0.41c0.03-0.16,0.08-0.33,0.12-0.5
			c1.03-4.14,4.8-7.23,9.26-7.23h1.27c3.99-11.91,15.24-20.49,28.49-20.49c13.25,0,24.5,8.58,28.49,20.49
			c0.04,0.13,0.09,0.26,0.13,0.39c0.46-0.08,0.94-0.11,1.42-0.11c3.3,0,6.19,1.72,7.84,4.31c0.01,0.02,0.03,0.05,0.04,0.08
			c0.02,0.02,0.03,0.04,0.04,0.06c0.09,0.13,0.16,0.26,0.23,0.4c0.08,0.13,0.14,0.26,0.2,0.4s0.13,0.27,0.18,0.41
			c0.05,0.12,0.1,0.24,0.14,0.36c0.03,0.08,0.05,0.15,0.09,0.24c0.03,0.08,0.05,0.15,0.08,0.23c0.05,0.16,0.1,0.31,0.14,0.47
			l0.12,0.5c0.02,0.14,0.04,0.27,0.06,0.41c0.01,0.06,0.02,0.12,0.02,0.17c0.03,0.2,0.05,0.42,0.06,0.64
			c0.01,0.03,0.01,0.05,0.01,0.09l0.01,0.52C110.17,71.04,110.17,71.21,110.16,71.38z M91.56,61.32
			c-3.6-7.82-11.51-13.24-20.7-13.24c-9.18,0-17.09,5.42-20.69,13.24c-0.68,1.44-1.2,2.96-1.54,4.56c-0.37,1.61-0.56,3.28-0.56,4.99
			c0,1.71,0.19,3.38,0.56,4.99c0.34,1.6,0.86,3.12,1.54,4.56c3.6,7.83,11.5,13.25,20.69,13.25c9.18,0,17.1-5.42,20.7-13.25
			c0.68-1.43,1.2-2.96,1.54-4.55c0.37-1.61,0.56-3.29,0.56-5c0-1.72-0.19-3.4-0.56-5C92.75,64.28,92.24,62.76,91.56,61.32z"/>
		<path class="st0" d="M105.38,19.52H35.97c-9.18,0-16.64,7.45-16.64,16.64v69.4c0,9.19,7.46,16.64,16.64,16.64h69.41
			c9.18,0,16.63-7.45,16.63-16.64v-69.4C122.01,26.97,114.56,19.52,105.38,19.52z M104.43,83.84
			c-5.31,13.78-18.77,23.01-33.56,23.01c-14.77,0-28.21-9.21-33.56-22.94c-2.72-0.46-5.18-1.74-7.16-3.71
			c-2.5-2.5-3.89-5.82-3.89-9.35c0-6.42,4.73-11.98,11.05-13.04c5.35-13.73,18.79-22.94,33.56-22.94c14.79,0,28.24,9.24,33.57,23.01
			c2.58,0.52,4.89,1.77,6.75,3.62c2.5,2.51,3.88,5.83,3.88,9.35C115.07,77.19,110.62,82.61,104.43,83.84z"/>
	</g>
	<g>
		<path class="st0" d="M17.28,42.7v56.33h-0.42c-1.7,0-3.07-1.38-3.07-3.08V45.78c0-1.7,1.37-3.08,3.07-3.08H17.28z"/>
	</g>
	<g>
		<path class="st0" d="M127.95,45.78v50.17c0,1.7-1.38,3.08-3.08,3.08h-0.42V42.7h0.42C126.57,42.7,127.95,44.08,127.95,45.78z"/>
	</g>
</g>
</svg>
