<svg t="1694053006801" class="icon" viewBox="0 0 1024 1024" version="1.1" xmlns="http://www.w3.org/2000/svg" p-id="21489" width="200" height="200"><path d="M617.213785 473.089805l-67.318198 16.198937c-9.261944-17.587564-20.788465-33.296337-34.951023-48.019667l36.083823-58.939367c0.791016-1.297552 0.982374-2.774183 0.636496-4.161786-0.303922-1.430582-1.198292-2.638083-2.449795-3.40147l-86.259596-52.717665c-2.562359-1.521656-5.872754-0.75827-7.417947 1.789763l-36.329417 59.029418c-19.254529-5.861498-39.101553-8.993838-59.138912-9.307993l-16.311501-67.756173c-0.738827-2.907213-3.63683-4.742001-6.612605-4.025687l-98.937336 23.806195c-2.975774 0.717338-4.765537 3.670599-4.050246 6.623861l16.290011 67.667146c-17.330714 9.488095-33.675984 21.526269-47.750537 34.95l-58.446134-35.935444c-1.276063-0.806365-2.708692-1.029446-4.118807-0.717338l0 0c-1.431605 0.358157-2.661619 1.210571-3.41068 2.508123l-52.573379 86.105077c-0.760317 1.251503-1.00591 2.772136-0.671289 4.203742 0.335644 1.431605 1.218758 2.596128 2.506077 3.311419l58.681494 35.800367c-5.873778 19.511379-8.962116 38.934754-9.275247 58.985416l-67.340711 16.287965c-2.930749 0.672312-4.765537 3.625574-4.061502 6.53381l23.842011 98.949616c0.717338 2.997264 3.692089 4.787026 6.611581 4.071735l67.443042-16.198937c9.676383 17.544585 21.702278 34.054607 35.084053 48.064692l-35.945677 58.579163c-0.762363 1.209548-1.019213 2.730181-0.661056 4.15974 0.334621 1.344624 1.240247 2.6432 2.462075 3.40147l86.224804 52.674687c1.243317 0.718361 3.088338 0.939395 4.106528 0.672312 1.432629-0.403183 2.696412-1.298576 3.413749-2.506077l35.433-58.671261c18.60473 5.507434 38.553061 8.725732 58.288544 9.263991l16.1007 66.951855c0.738827 2.953262 3.659343 4.742001 6.64535 4.027733l98.925057-23.811312c2.976798-0.715291 4.78805-3.621481 4.072759-6.576789l-16.166191-67.038836c17.632589-9.444093 33.83255-21.170159 48.362474-35.132148l59.144028 36.112476c2.562359 1.568728 5.885034 0.766456 7.53972-1.832741l52.80874-86.23606c0.748037-1.208525 0.939395-2.732228 0.603751-4.161786-0.302899-1.431605-1.210571-2.642177-2.484587-3.3984l-58.951647-35.93749c5.570879-18.526959 8.738012-38.531572 9.29776-58.447157l67.396993-16.200984c2.898003-0.759293 4.709255-3.622504 4.027733-6.623861l-23.809265-98.900497C623.054817 474.163253 620.112812 472.372467 617.213785 473.089805zM460.39211 587.073836c3.27765 43.766806-22.711258 86.235037-63.190181 103.375415-34.425044 14.503319-73.718979 9.936303-103.434767-11.772115-24.90318-18.168802-40.555671-46.538943-42.871413-77.734432-3.222391-43.810808 22.75526-86.281085 63.246463-103.373369 5.503341-2.331092 11.232832-4.209882 16.950044-5.596462 29.983895-7.203052 61.510936-0.895393 86.448908 17.275455C442.470949 527.373129 458.098881 555.788296 460.39211 587.073836z" fill="#ffffff" p-id="21490"></path><path d="M352.115058 502.848573c-64.813145 3.089361-105.415888 69.542866-78.675874 128.574331 14.936177 33.069163 49.553603 54.237275 85.814458 52.582589 64.72207-3.134387 105.434308-69.588915 78.652338-128.662335C422.957523 522.360975 388.297119 501.192863 352.115058 502.848573zM414.611437 593.068364c0.390903 22.150486-12.485359 43.186591-32.401967 52.985772-39.438221 19.379373-84.738963-8.369621-85.509513-52.270481-0.337691-22.154579 12.507872-43.274596 32.399921-52.988842C368.570845 521.464559 413.8941 549.165458 414.611437 593.068364z" fill="#ffffff" p-id="21491"></path><path d="M947.645496 270.360568l-32.689517-60.148915c-1.469468-2.64013-4.711302-3.5345-7.499811-2.101871l-39.671535 21.524223c-8.742105-9.260921-18.497283-17.140379-29.640064-24.031323l12.880355-43.588751c0.827855-2.953262-0.750083-5.952572-3.691065-6.844895l-65.730027-19.380396c-2.867304-0.893346-5.842055 0.762363-6.780427 3.670599l-12.921287 43.544749c-13.113669-0.223081-25.657356 1.028423-38.121226 4.028757l0 0-21.62553-39.653115c-1.432629-2.638083-4.744048-3.5345-7.387247-2.192945l-60.111053 32.716122c-2.670829 1.476631-3.626597 4.742001-2.190899 7.384178l21.546735 39.695071c-9.262968 8.904811-17.330714 18.839067-24.031323 29.66974l-43.399439-12.799514c-1.352811-0.448208-2.852978-0.312108-4.174066 0.402159-1.242294 0.716314-2.225691 1.880837-2.604314 3.222391l-19.400862 65.787332c-0.86367 2.865257 0.794086 5.817496 3.736091 6.667863l43.386136 12.888542c-0.290619 13.111622 1.063215 25.688055 4.071735 38.21844l-39.851637 21.659299c-1.24127 0.763386-2.180666 1.88186-2.594081 3.222391-0.413416 1.387603-0.270153 2.865257 0.413416 4.207835l32.724309 60.057841c1.476631 2.684132 4.709255 3.624551 7.429203 2.235924l39.85573-21.702278c8.9263 9.309016 18.903535 17.320481 29.756721 23.985274l-12.811794 43.456744c-0.448208 1.431605-0.224104 2.908236 0.415462 4.117784 0.714268 1.385557 1.847068 2.281973 3.27765 2.638083l65.61951 19.467377c1.428535 0.446162 2.943029 0.267083 4.182252-0.448208 1.321088-0.716314 2.226714-1.926886 2.597151-3.267417l12.886495-43.450604c12.687974 0.267083 25.387203-1.121544 37.862329-4.02978l21.725814 39.873126c0.602727 1.298576 1.813299 2.284019 3.244904 2.644223 0.937348 0.309038 1.847068 0.309038 2.785439 0.086981 0.448208-0.177032 0.907673-0.314155 1.433652-0.447185l60.047608-32.758078c1.274016-0.717338 2.211365-1.879813 2.670829-3.269463 0.336668-1.385557 0.257873-2.907213-0.459464-4.160763l-21.724791-39.9642c9.262968-8.950859 17.322527-18.930141 23.984251-29.803793l43.703361 12.888542c2.910283 0.893346 5.996574-0.762363 6.822382-3.626597l19.425422-65.652256c0.424672-1.430582 0.26606-2.953262-0.448208-4.203742-0.669242-1.298576-1.837858-2.238994-3.244904-2.685155l-43.642986-12.888542c0.25685-12.620435-1.100054-25.375947-4.040013-37.817304l39.784098-21.615297c1.272993-0.670266 2.25946-1.877767 2.665713-3.221368C948.518377 273.135774 948.358741 271.65812 947.645496 270.360568zM802.991955 387.475915c-8.43409 6.938016-17.966187 11.727089-28.285207 14.232143-35.631522 8.592702-71.043033-11.637038-82.421174-46.90017-8.512884-26.54047 0.26913-56.210209 21.817911-73.752748 8.436136-6.938016 17.971303-11.770068 28.28316-14.276145 35.598776-8.593725 71.119781 11.636015 82.426291 46.944172C833.393359 340.217588 824.585763 369.84435 802.991955 387.475915z" fill="#ffffff" p-id="21492"></path><path d="M758.287801 276.66925c-42.943045 0.671289-69.992097 44.975331-51.120284 83.507926 9.531074 19.422352 30.139437 32.042787 51.801806 31.68463 42.859134-0.716314 69.979818-44.975331 51.072189-83.551928C800.553417 288.88855 779.946077 276.311093 758.287801 276.66925zM794.301016 332.878436c0.716314 14.143115-7.732102 27.928073-20.687158 33.835619-23.237237 10.514471-49.462528-5.506411-50.737568-31.105439-0.603751-14.186094 7.762801-27.882024 20.75265-33.788547C766.877433 291.304575 793.093515 307.325457 794.301016 332.878436z" fill="#ffffff" p-id="21493"></path></svg>