<?xml version="1.0" encoding="utf-8"?>
<!-- Generator: Adobe Illustrator 26.5.0, SVG Export Plug-In . SVG Version: 6.00 Build 0)  -->
<svg version="1.1" id="图层_1" xmlns="http://www.w3.org/2000/svg" xmlns:xlink="http://www.w3.org/1999/xlink" x="0px" y="0px"
	 viewBox="0 0 22.68 22.68" style="enable-background:new 0 0 22.68 22.68;" xml:space="preserve">
<style type="text/css">
	.st0{fill:#FFFFFF;}
	.st1{fill:#0090F5;}
	.st2{fill:#FF4CCD;}
	.st3{fill:#9B6AF6;}
	.st4{fill:#BE60EF;}
	.st5{fill:#34CBF0;}
	.st6{fill:#5CB1D6;}
	.st7{fill:none;stroke:#2E8EB8;stroke-linecap:round;stroke-miterlimit:10;}
	.st8{fill:none;stroke:#FFFFFF;stroke-width:1.2;stroke-linecap:round;stroke-miterlimit:10;}
</style>
<g>
	<g>
		<path class="st0" d="M9.82,5.92c-3.83,0-6.93,3.1-6.93,6.94c0,3.83,3.1,6.93,6.93,6.93c3.83,0,6.94-3.1,6.94-6.93
			C16.76,9.02,13.66,5.92,9.82,5.92z M5.2,14.59c-0.96,0-1.73-0.78-1.73-1.73c0-0.96,0.78-1.73,1.73-1.73
			c0.96,0,1.73,0.78,1.73,1.73C6.94,13.81,6.16,14.59,5.2,14.59z M9.82,19.21c-0.96,0-1.73-0.78-1.73-1.73
			c0-0.96,0.78-1.73,1.73-1.73c0.96,0,1.73,0.78,1.73,1.73C11.56,18.43,10.78,19.21,9.82,19.21z M11.33,12.28v1.16H10.4v0.92H9.25
			v-0.92H8.32v-1.16h0.93v-0.93h1.16v0.93H11.33z M9.82,9.96c-0.96,0-1.73-0.78-1.73-1.73c0-0.96,0.78-1.73,1.73-1.73
			c0.96,0,1.73,0.78,1.73,1.73C11.56,9.18,10.78,9.96,9.82,9.96z M14.45,14.59c-0.96,0-1.73-0.78-1.73-1.73
			c0-0.96,0.78-1.73,1.73-1.73c0.96,0,1.73,0.78,1.73,1.73C16.18,13.81,15.41,14.59,14.45,14.59z"/>
	</g>
	<g>
		<path class="st0" d="M12.85,2.89c-2.41,0-4.54,1.23-5.78,3.1c0.85-0.34,1.78-0.53,2.75-0.53c0.46,0,0.9,0.04,1.34,0.12
			c-0.03-0.12-0.04-0.25-0.04-0.39c0-0.96,0.78-1.73,1.73-1.73c0.96,0,1.73,0.78,1.73,1.73c0,0.6-0.3,1.13-0.76,1.44
			c0.89,0.57,1.64,1.33,2.22,2.21c0.31-0.46,0.84-0.76,1.44-0.76c0.96,0,1.73,0.78,1.73,1.73c0,0.96-0.78,1.73-1.73,1.73
			c-0.13,0-0.26-0.01-0.39-0.04c0.08,0.43,0.12,0.88,0.12,1.34c0,0.97-0.19,1.9-0.53,2.75c1.87-1.24,3.1-3.37,3.1-5.78
			C19.79,6,16.68,2.89,12.85,2.89z"/>
	</g>
</g>
</svg>
