<?xml version="1.0" encoding="utf-8"?>
<!-- Generator: Adobe Illustrator 26.5.0, SVG Export Plug-In . SVG Version: 6.00 Build 0)  -->
<svg version="1.1" id="图层_1" xmlns="http://www.w3.org/2000/svg" xmlns:xlink="http://www.w3.org/1999/xlink" x="0px" y="0px"
	 viewBox="0 0 22.68 22.68" style="enable-background:new 0 0 22.68 22.68;" xml:space="preserve">
<style type="text/css">
	.st0{fill:#FFFFFF;}
	.st1{fill:#0090F5;}
	.st2{fill:#FF4CCD;}
	.st3{fill:#9B6AF6;}
	.st4{fill:#BE60EF;}
	.st5{fill:#34CBF0;}
	.st6{fill:#5CB1D6;}
	.st7{fill:none;stroke:#2E8EB8;stroke-linecap:round;stroke-miterlimit:10;}
	.st8{fill:none;stroke:#FFFFFF;stroke-width:1.2;stroke-linecap:round;stroke-miterlimit:10;}
</style>
<g>
	<path class="st0" d="M16.67,2.83H6.01C4.25,2.83,2.83,4.25,2.83,6v10.67c0,1.75,1.42,3.17,3.18,3.17h10.66
		c1.75,0,3.17-1.42,3.17-3.17V6C19.84,4.25,18.42,2.83,16.67,2.83z M15.89,13.62h-0.94c-0.75,1.2-2.09,1.99-3.61,1.99
		s-2.86-0.79-3.61-1.99H6.79c-1.26,0-2.28-1.02-2.28-2.28c0-0.63,0.25-1.2,0.67-1.61c0.41-0.41,0.98-0.67,1.61-0.67h0.94
		c0.75-1.2,2.09-1.99,3.61-1.99s2.86,0.79,3.61,1.99h0.94c1.26,0,2.28,1.02,2.28,2.28S17.15,13.62,15.89,13.62z"/>
	<path class="st0" d="M13.95,11.34c0,0.98-0.54,1.84-1.35,2.28c-0.37,0.21-0.8,0.33-1.26,0.33s-0.89-0.12-1.26-0.33
		c-0.81-0.44-1.35-1.3-1.35-2.28s0.54-1.84,1.35-2.28c0.37-0.21,0.8-0.33,1.26-0.33s0.89,0.12,1.26,0.33
		C13.41,9.5,13.95,10.36,13.95,11.34z"/>
</g>
</svg>
