<?xml version="1.0" encoding="utf-8"?>
<!-- Generator: Adobe Illustrator 26.5.0, SVG Export Plug-In . SVG Version: 6.00 Build 0)  -->
<svg version="1.1" id="图层_1" xmlns="http://www.w3.org/2000/svg" xmlns:xlink="http://www.w3.org/1999/xlink" x="0px" y="0px"
	 viewBox="0 0 22.68 22.68" style="enable-background:new 0 0 22.68 22.68;" xml:space="preserve">
<style type="text/css">
	.st0{fill:#FFFFFF;}
	.st1{fill:#0090F5;}
	.st2{fill:#FF4CCD;}
	.st3{fill:#9B6AF6;}
	.st4{fill:#BE60EF;}
	.st5{fill:#34CBF0;}
	.st6{fill:#5CB1D6;}
	.st7{fill:none;stroke:#2E8EB8;stroke-linecap:round;stroke-miterlimit:10;}
	.st8{fill:none;stroke:#FFFFFF;stroke-width:1.2;stroke-linecap:round;stroke-miterlimit:10;}
</style>
<g>
	<path class="st0" d="M16.24,6.95c-0.06,0-0.11,0-0.17,0.01V6.95H6.44c-2.43,0-4.39,1.97-4.39,4.39c0,2.42,1.97,4.39,4.39,4.39
		c1.29,0,2.46-0.56,3.25-1.46h3.29c0.8,0.89,1.97,1.46,3.26,1.46c2.43,0,4.39-1.97,4.39-4.39C20.63,8.92,18.67,6.95,16.24,6.95z
		 M15.24,11.34c0,0.48-0.39,0.87-0.87,0.87c-0.49,0-0.87-0.39-0.87-0.87c0-0.49,0.38-0.88,0.87-0.88
		C14.85,10.47,15.24,10.86,15.24,11.34z M5.49,13.73v-1.65H3.83v-1.46h1.66V8.95h1.46v1.66h1.66v1.46H6.96v1.65H5.49z M16.38,14.21
		c-0.11,0-0.21-0.02-0.31-0.06c-0.32-0.12-0.56-0.44-0.56-0.81c0-0.37,0.24-0.69,0.56-0.81c0.09-0.04,0.2-0.06,0.31-0.06
		c0.49,0,0.87,0.39,0.87,0.87C17.24,13.82,16.86,14.21,16.38,14.21z M16.38,10.2c-0.11,0-0.21-0.02-0.31-0.06
		c-0.32-0.12-0.56-0.44-0.56-0.81c0-0.37,0.24-0.69,0.56-0.81c0.09-0.04,0.2-0.06,0.31-0.06c0.49,0,0.87,0.39,0.87,0.87
		C17.24,9.81,16.86,10.2,16.38,10.2z M18.39,12.21c-0.49,0-0.87-0.39-0.87-0.87c0-0.49,0.38-0.88,0.87-0.88
		c0.48,0,0.87,0.39,0.87,0.88C19.25,11.82,18.86,12.21,18.39,12.21z"/>
</g>
</svg>
