<?xml version="1.0" standalone="no"?><!DOCTYPE svg PUBLIC "-//W3C//DTD SVG 1.1//EN" "http://www.w3.org/Graphics/SVG/1.1/DTD/svg11.dtd"><svg t="1768987848971" class="icon" viewBox="0 0 1024 1024" version="1.1" xmlns="http://www.w3.org/2000/svg" p-id="4851" xmlns:xlink="http://www.w3.org/1999/xlink" width="200" height="200"><path d="M475.65 215.2v75.28l38 6.14c15.11 8.53 49.88 76.6 49.88 200.82 0 124.32-34.76 192.34-49.86 200.81l-38.02 6.15V779.82c-4.14-0.31-8.28-0.65-12.42-1.04V216.3c4.16-0.41 8.3-0.78 12.42-1.1m-135.02 25.35v513.84C192.38 707.81 93.09 607.23 93.09 497.61c0-109.78 99.29-210.47 247.54-257.06m181.56-73.75c-36.44 0-71.42 3.23-105.51 8.52v644.53c34.09 5.29 69.07 8.23 105.51 8.23v-84.06c49.08-7.94 87.88-114.92 87.88-246.58 0-131.37-38.8-238.65-87.88-246.58V166.8z m-135.01 13.69C190.26 221.05 46.55 347.42 46.55 497.61c0 149.89 143.72 276.27 340.63 316.83V180.49z m307.05 50.6c-4.25 0-8.48 0.89-12.36 2.67-7.05 3.23-12.64 9.11-15.28 16.46-5.58 15.28 2.35 32.33 17.34 37.91l254.22 93.75c3.23 1.18 6.47 1.76 9.99 1.76 14.4 0 26.45-10.29 28.8-24.39 2.64-13.81-5.29-27.63-18.52-32.62L704.5 232.88a30.375 30.375 0 0 0-10.27-1.79z m-0.45 236.98c-6.72 0-13.33 2.28-18.69 6.69-7.93 6.76-12.05 17.34-9.99 27.63 1.76 10.58 9.11 19.1 19.1 22.63l253.93 93.75c2.74 0.82 5.52 1.21 8.27 1.21 11.98 0 23.29-7.48 27.59-19.44 5.29-14.4-1.47-30.57-15.58-37.03l-253.93-93.46a29.972 29.972 0 0 0-10.7-1.98z m0.61 236.98c-12.06 0-23.44 7.41-27.81 19.13-5.58 15.28 2.35 32.33 17.34 37.91l254.22 93.75c2.92 0.92 5.89 1.35 8.81 1.35 12.07 0 23.38-7.45 27.64-19.28 5.58-14.7-1.76-31.15-16.16-37.33L704.5 706.83a29.652 29.652 0 0 0-10.11-1.78z" p-id="4852" fill="#ffffff"></path></svg>