<?xml version="1.0" encoding="utf-8"?>
<!-- Generator: Adobe Illustrator 27.6.1, SVG Export Plug-In . SVG Version: 6.00 Build 0)  -->
<svg version="1.1" id="图层_1" xmlns="http://www.w3.org/2000/svg" xmlns:xlink="http://www.w3.org/1999/xlink" x="0px" y="0px"
	 viewBox="0 0 141.73 141.73" style="enable-background:new 0 0 141.73 141.73;" xml:space="preserve">
<style type="text/css">
	.st0{fill:#FFFFFF;}
</style>
<g>
	<path class="st0" d="M90.9,28.61v4.63h37.04v9.78h-18.52v4.63h18.52v9.77h-8.02v4.63h8.02v32.67h-26.83
		c1.03-3.81,1.57-7.81,1.57-11.94c0-25.27-20.56-45.83-45.83-45.83c-6.71,0-13.09,1.45-18.84,4.06L68.78,15.9h59.16v12.7H90.9z"/>
	<g>
		<path class="st0" d="M56.85,43.16c-12.39,0-23.46,5.72-30.73,14.66c-5.55,6.81-8.87,15.51-8.87,24.95
			c0,21.84,17.77,39.61,39.6,39.61c17.69,0,32.7-11.65,37.77-27.68c1.19-3.77,1.84-7.78,1.84-11.94
			C96.46,60.93,78.69,43.16,56.85,43.16z M56.85,45.33c6.59,0,11.94,5.34,11.94,11.93c0,6.59-5.34,11.94-11.94,11.94
			c-6.58,0-11.93-5.34-11.93-11.94C44.92,50.67,50.26,45.33,56.85,45.33z M62.65,80.02c1.01,0,1.84,0.83,1.84,1.85v1.8
			c0,1.02-0.83,1.85-1.84,1.85H59.6v3.05c0,1.02-0.83,1.85-1.84,1.85h-1.81c-1.02,0-1.85-0.83-1.85-1.85v-3.05h-3.05
			c-1.02,0-1.85-0.83-1.85-1.85v-1.8c0-1.02,0.83-1.85,1.85-1.85h3.05v-3.05c0-1.02,0.83-1.85,1.85-1.85h1.81
			c1.01,0,1.84,0.83,1.84,1.85v3.05H62.65z M26.12,93.51c-3.97-1.94-6.71-6.01-6.71-10.73c0-4.72,2.74-8.8,6.71-10.73
			c1.57-0.78,3.35-1.2,5.22-1.2c6.59,0,11.94,5.34,11.94,11.94c0,6.59-5.34,11.94-11.94,11.94C29.47,94.71,27.69,94.28,26.12,93.51z
			 M56.85,120.22c-6.58,0-11.93-5.34-11.93-11.93c0-6.59,5.34-11.94,11.93-11.94c6.59,0,11.94,5.34,11.94,11.94
			C68.78,114.88,63.44,120.22,56.85,120.22z M70.43,82.77c0-6.59,5.34-11.94,11.94-11.94c6.59,0,11.94,5.34,11.94,11.94
			c0,6.59-5.34,11.94-11.94,11.94C75.77,94.71,70.43,89.37,70.43,82.77z M56.85,43.16c-12.39,0-23.46,5.72-30.73,14.66
			c-5.55,6.81-8.87,15.51-8.87,24.95c0,21.84,17.77,39.61,39.6,39.61c17.69,0,32.7-11.65,37.77-27.68
			c1.19-3.77,1.84-7.78,1.84-11.94C96.46,60.93,78.69,43.16,56.85,43.16z M56.85,45.33c6.59,0,11.94,5.34,11.94,11.93
			c0,6.59-5.34,11.94-11.94,11.94c-6.58,0-11.93-5.34-11.93-11.94C44.92,50.67,50.26,45.33,56.85,45.33z M62.65,80.02
			c1.01,0,1.84,0.83,1.84,1.85v1.8c0,1.02-0.83,1.85-1.84,1.85H59.6v3.05c0,1.02-0.83,1.85-1.84,1.85h-1.81
			c-1.02,0-1.85-0.83-1.85-1.85v-3.05h-3.05c-1.02,0-1.85-0.83-1.85-1.85v-1.8c0-1.02,0.83-1.85,1.85-1.85h3.05v-3.05
			c0-1.02,0.83-1.85,1.85-1.85h1.81c1.01,0,1.84,0.83,1.84,1.85v3.05H62.65z M26.12,93.51c-3.97-1.94-6.71-6.01-6.71-10.73
			c0-4.72,2.74-8.8,6.71-10.73c1.57-0.78,3.35-1.2,5.22-1.2c6.59,0,11.94,5.34,11.94,11.94c0,6.59-5.34,11.94-11.94,11.94
			C29.47,94.71,27.69,94.28,26.12,93.51z M56.85,120.22c-6.58,0-11.93-5.34-11.93-11.93c0-6.59,5.34-11.94,11.93-11.94
			c6.59,0,11.94,5.34,11.94,11.94C68.78,114.88,63.44,120.22,56.85,120.22z M70.43,82.77c0-6.59,5.34-11.94,11.94-11.94
			c6.59,0,11.94,5.34,11.94,11.94c0,6.59-5.34,11.94-11.94,11.94C75.77,94.71,70.43,89.37,70.43,82.77z M56.85,43.16
			c-12.39,0-23.46,5.72-30.73,14.66c-5.55,6.81-8.87,15.51-8.87,24.95c0,21.84,17.77,39.61,39.6,39.61
			c17.69,0,32.7-11.65,37.77-27.68c1.19-3.77,1.84-7.78,1.84-11.94C96.46,60.93,78.69,43.16,56.85,43.16z M56.85,45.33
			c6.59,0,11.94,5.34,11.94,11.93c0,6.59-5.34,11.94-11.94,11.94c-6.58,0-11.93-5.34-11.93-11.94
			C44.92,50.67,50.26,45.33,56.85,45.33z M62.65,80.02c1.01,0,1.84,0.83,1.84,1.85v1.8c0,1.02-0.83,1.85-1.84,1.85H59.6v3.05
			c0,1.02-0.83,1.85-1.84,1.85h-1.81c-1.02,0-1.85-0.83-1.85-1.85v-3.05h-3.05c-1.02,0-1.85-0.83-1.85-1.85v-1.8
			c0-1.02,0.83-1.85,1.85-1.85h3.05v-3.05c0-1.02,0.83-1.85,1.85-1.85h1.81c1.01,0,1.84,0.83,1.84,1.85v3.05H62.65z M26.12,93.51
			c-3.97-1.94-6.71-6.01-6.71-10.73c0-4.72,2.74-8.8,6.71-10.73c1.57-0.78,3.35-1.2,5.22-1.2c6.59,0,11.94,5.34,11.94,11.94
			c0,6.59-5.34,11.94-11.94,11.94C29.47,94.71,27.69,94.28,26.12,93.51z M56.85,120.22c-6.58,0-11.93-5.34-11.93-11.93
			c0-6.59,5.34-11.94,11.93-11.94c6.59,0,11.94,5.34,11.94,11.94C68.78,114.88,63.44,120.22,56.85,120.22z M70.43,82.77
			c0-6.59,5.34-11.94,11.94-11.94c6.59,0,11.94,5.34,11.94,11.94c0,6.59-5.34,11.94-11.94,11.94
			C75.77,94.71,70.43,89.37,70.43,82.77z M56.85,43.16c-12.39,0-23.46,5.72-30.73,14.66c-5.55,6.81-8.87,15.51-8.87,24.95
			c0,21.84,17.77,39.61,39.6,39.61c17.69,0,32.7-11.65,37.77-27.68c1.19-3.77,1.84-7.78,1.84-11.94
			C96.46,60.93,78.69,43.16,56.85,43.16z M56.85,45.33c6.59,0,11.94,5.34,11.94,11.93c0,6.59-5.34,11.94-11.94,11.94
			c-6.58,0-11.93-5.34-11.93-11.94C44.92,50.67,50.26,45.33,56.85,45.33z M62.65,80.02c1.01,0,1.84,0.83,1.84,1.85v1.8
			c0,1.02-0.83,1.85-1.84,1.85H59.6v3.05c0,1.02-0.83,1.85-1.84,1.85h-1.81c-1.02,0-1.85-0.83-1.85-1.85v-3.05h-3.05
			c-1.02,0-1.85-0.83-1.85-1.85v-1.8c0-1.02,0.83-1.85,1.85-1.85h3.05v-3.05c0-1.02,0.83-1.85,1.85-1.85h1.81
			c1.01,0,1.84,0.83,1.84,1.85v3.05H62.65z M26.12,93.51c-3.97-1.94-6.71-6.01-6.71-10.73c0-4.72,2.74-8.8,6.71-10.73
			c1.57-0.78,3.35-1.2,5.22-1.2c6.59,0,11.94,5.34,11.94,11.94c0,6.59-5.34,11.94-11.94,11.94C29.47,94.71,27.69,94.28,26.12,93.51z
			 M56.85,120.22c-6.58,0-11.93-5.34-11.93-11.93c0-6.59,5.34-11.94,11.93-11.94c6.59,0,11.94,5.34,11.94,11.94
			C68.78,114.88,63.44,120.22,56.85,120.22z M70.43,82.77c0-6.59,5.34-11.94,11.94-11.94c6.59,0,11.94,5.34,11.94,11.94
			c0,6.59-5.34,11.94-11.94,11.94C75.77,94.71,70.43,89.37,70.43,82.77z M56.85,43.16c-12.39,0-23.46,5.72-30.73,14.66
			c-5.55,6.81-8.87,15.51-8.87,24.95c0,21.84,17.77,39.61,39.6,39.61c17.69,0,32.7-11.65,37.77-27.68
			c1.19-3.77,1.84-7.78,1.84-11.94C96.46,60.93,78.69,43.16,56.85,43.16z M56.85,45.33c6.59,0,11.94,5.34,11.94,11.93
			c0,6.59-5.34,11.94-11.94,11.94c-6.58,0-11.93-5.34-11.93-11.94C44.92,50.67,50.26,45.33,56.85,45.33z M62.65,80.02
			c1.01,0,1.84,0.83,1.84,1.85v1.8c0,1.02-0.83,1.85-1.84,1.85H59.6v3.05c0,1.02-0.83,1.85-1.84,1.85h-1.81
			c-1.02,0-1.85-0.83-1.85-1.85v-3.05h-3.05c-1.02,0-1.85-0.83-1.85-1.85v-1.8c0-1.02,0.83-1.85,1.85-1.85h3.05v-3.05
			c0-1.02,0.83-1.85,1.85-1.85h1.81c1.01,0,1.84,0.83,1.84,1.85v3.05H62.65z M26.12,93.51c-3.97-1.94-6.71-6.01-6.71-10.73
			c0-4.72,2.74-8.8,6.71-10.73c1.57-0.78,3.35-1.2,5.22-1.2c6.59,0,11.94,5.34,11.94,11.94c0,6.59-5.34,11.94-11.94,11.94
			C29.47,94.71,27.69,94.28,26.12,93.51z M56.85,120.22c-6.58,0-11.93-5.34-11.93-11.93c0-6.59,5.34-11.94,11.93-11.94
			c6.59,0,11.94,5.34,11.94,11.94C68.78,114.88,63.44,120.22,56.85,120.22z M70.43,82.77c0-6.59,5.34-11.94,11.94-11.94
			c6.59,0,11.94,5.34,11.94,11.94c0,6.59-5.34,11.94-11.94,11.94C75.77,94.71,70.43,89.37,70.43,82.77z M56.85,43.16
			c-12.39,0-23.46,5.72-30.73,14.66c-5.55,6.81-8.87,15.51-8.87,24.95c0,21.84,17.77,39.61,39.6,39.61
			c17.69,0,32.7-11.65,37.77-27.68c1.19-3.77,1.84-7.78,1.84-11.94C96.46,60.93,78.69,43.16,56.85,43.16z M56.85,45.33
			c6.59,0,11.94,5.34,11.94,11.93c0,6.59-5.34,11.94-11.94,11.94c-6.58,0-11.93-5.34-11.93-11.94
			C44.92,50.67,50.26,45.33,56.85,45.33z M62.65,80.02c1.01,0,1.84,0.83,1.84,1.85v1.8c0,1.02-0.83,1.85-1.84,1.85H59.6v3.05
			c0,1.02-0.83,1.85-1.84,1.85h-1.81c-1.02,0-1.85-0.83-1.85-1.85v-3.05h-3.05c-1.02,0-1.85-0.83-1.85-1.85v-1.8
			c0-1.02,0.83-1.85,1.85-1.85h3.05v-3.05c0-1.02,0.83-1.85,1.85-1.85h1.81c1.01,0,1.84,0.83,1.84,1.85v3.05H62.65z M26.12,93.51
			c-3.97-1.94-6.71-6.01-6.71-10.73c0-4.72,2.74-8.8,6.71-10.73c1.57-0.78,3.35-1.2,5.22-1.2c6.59,0,11.94,5.34,11.94,11.94
			c0,6.59-5.34,11.94-11.94,11.94C29.47,94.71,27.69,94.28,26.12,93.51z M56.85,120.22c-6.58,0-11.93-5.34-11.93-11.93
			c0-6.59,5.34-11.94,11.93-11.94c6.59,0,11.94,5.34,11.94,11.94C68.78,114.88,63.44,120.22,56.85,120.22z M70.43,82.77
			c0-6.59,5.34-11.94,11.94-11.94c6.59,0,11.94,5.34,11.94,11.94c0,6.59-5.34,11.94-11.94,11.94
			C75.77,94.71,70.43,89.37,70.43,82.77z M56.85,43.16c-12.39,0-23.46,5.72-30.73,14.66c-5.55,6.81-8.87,15.51-8.87,24.95
			c0,21.84,17.77,39.61,39.6,39.61c17.69,0,32.7-11.65,37.77-27.68c1.19-3.77,1.84-7.78,1.84-11.94
			C96.46,60.93,78.69,43.16,56.85,43.16z M56.85,45.33c6.59,0,11.94,5.34,11.94,11.93c0,6.59-5.34,11.94-11.94,11.94
			c-6.58,0-11.93-5.34-11.93-11.94C44.92,50.67,50.26,45.33,56.85,45.33z M62.65,80.02c1.01,0,1.84,0.83,1.84,1.85v1.8
			c0,1.02-0.83,1.85-1.84,1.85H59.6v3.05c0,1.02-0.83,1.85-1.84,1.85h-1.81c-1.02,0-1.85-0.83-1.85-1.85v-3.05h-3.05
			c-1.02,0-1.85-0.83-1.85-1.85v-1.8c0-1.02,0.83-1.85,1.85-1.85h3.05v-3.05c0-1.02,0.83-1.85,1.85-1.85h1.81
			c1.01,0,1.84,0.83,1.84,1.85v3.05H62.65z M26.12,93.51c-3.97-1.94-6.71-6.01-6.71-10.73c0-4.72,2.74-8.8,6.71-10.73
			c1.57-0.78,3.35-1.2,5.22-1.2c6.59,0,11.94,5.34,11.94,11.94c0,6.59-5.34,11.94-11.94,11.94C29.47,94.71,27.69,94.28,26.12,93.51z
			 M56.85,120.22c-6.58,0-11.93-5.34-11.93-11.93c0-6.59,5.34-11.94,11.93-11.94c6.59,0,11.94,5.34,11.94,11.94
			C68.78,114.88,63.44,120.22,56.85,120.22z M70.43,82.77c0-6.59,5.34-11.94,11.94-11.94c6.59,0,11.94,5.34,11.94,11.94
			c0,6.59-5.34,11.94-11.94,11.94C75.77,94.71,70.43,89.37,70.43,82.77z M56.85,43.16c-12.39,0-23.46,5.72-30.73,14.66
			c-5.55,6.81-8.87,15.51-8.87,24.95c0,21.84,17.77,39.61,39.6,39.61c17.69,0,32.7-11.65,37.77-27.68
			c1.19-3.77,1.84-7.78,1.84-11.94C96.46,60.93,78.69,43.16,56.85,43.16z M56.85,45.33c6.59,0,11.94,5.34,11.94,11.93
			c0,6.59-5.34,11.94-11.94,11.94c-6.58,0-11.93-5.34-11.93-11.94C44.92,50.67,50.26,45.33,56.85,45.33z M62.65,80.02
			c1.01,0,1.84,0.83,1.84,1.85v1.8c0,1.02-0.83,1.85-1.84,1.85H59.6v3.05c0,1.02-0.83,1.85-1.84,1.85h-1.81
			c-1.02,0-1.85-0.83-1.85-1.85v-3.05h-3.05c-1.02,0-1.85-0.83-1.85-1.85v-1.8c0-1.02,0.83-1.85,1.85-1.85h3.05v-3.05
			c0-1.02,0.83-1.85,1.85-1.85h1.81c1.01,0,1.84,0.83,1.84,1.85v3.05H62.65z M26.12,93.51c-3.97-1.94-6.71-6.01-6.71-10.73
			c0-4.72,2.74-8.8,6.71-10.73c1.57-0.78,3.35-1.2,5.22-1.2c6.59,0,11.94,5.34,11.94,11.94c0,6.59-5.34,11.94-11.94,11.94
			C29.47,94.71,27.69,94.28,26.12,93.51z M56.85,120.22c-6.58,0-11.93-5.34-11.93-11.93c0-6.59,5.34-11.94,11.93-11.94
			c6.59,0,11.94,5.34,11.94,11.94C68.78,114.88,63.44,120.22,56.85,120.22z M70.43,82.77c0-6.59,5.34-11.94,11.94-11.94
			c6.59,0,11.94,5.34,11.94,11.94c0,6.59-5.34,11.94-11.94,11.94C75.77,94.71,70.43,89.37,70.43,82.77z M56.85,39.72
			c-12.03,0-22.91,4.95-30.73,12.93c-7.62,7.77-12.32,18.42-12.32,30.13c0,23.74,19.31,43.06,43.06,43.06
			c19.6,0,36.19-13.17,41.37-31.12c1.1-3.8,1.69-7.8,1.69-11.94C99.9,59.03,80.59,39.72,56.85,39.72z M56.85,123.31
			c-22.34,0-40.53-18.19-40.53-40.54c0-10.07,3.69-19.3,9.8-26.39c7.44-8.66,18.45-14.15,30.73-14.15
			c22.35,0,40.54,18.19,40.54,40.54c0,4.16-0.63,8.17-1.8,11.94C90.49,111.26,75.04,123.31,56.85,123.31z M56.85,43.16
			c-12.39,0-23.46,5.72-30.73,14.66c-5.55,6.81-8.87,15.51-8.87,24.95c0,21.84,17.77,39.61,39.6,39.61
			c17.69,0,32.7-11.65,37.77-27.68c1.19-3.77,1.84-7.78,1.84-11.94C96.46,60.93,78.69,43.16,56.85,43.16z M56.85,45.33
			c6.59,0,11.94,5.34,11.94,11.93c0,6.59-5.34,11.94-11.94,11.94c-6.58,0-11.93-5.34-11.93-11.94
			C44.92,50.67,50.26,45.33,56.85,45.33z M62.65,80.02c1.01,0,1.84,0.83,1.84,1.85v1.8c0,1.02-0.83,1.85-1.84,1.85H59.6v3.05
			c0,1.02-0.83,1.85-1.84,1.85h-1.81c-1.02,0-1.85-0.83-1.85-1.85v-3.05h-3.05c-1.02,0-1.85-0.83-1.85-1.85v-1.8
			c0-1.02,0.83-1.85,1.85-1.85h3.05v-3.05c0-1.02,0.83-1.85,1.85-1.85h1.81c1.01,0,1.84,0.83,1.84,1.85v3.05H62.65z M26.12,93.51
			c-3.97-1.94-6.71-6.01-6.71-10.73c0-4.72,2.74-8.8,6.71-10.73c1.57-0.78,3.35-1.2,5.22-1.2c6.59,0,11.94,5.34,11.94,11.94
			c0,6.59-5.34,11.94-11.94,11.94C29.47,94.71,27.69,94.28,26.12,93.51z M56.85,120.22c-6.58,0-11.93-5.34-11.93-11.93
			c0-6.59,5.34-11.94,11.93-11.94c6.59,0,11.94,5.34,11.94,11.94C68.78,114.88,63.44,120.22,56.85,120.22z M70.43,82.77
			c0-6.59,5.34-11.94,11.94-11.94c6.59,0,11.94,5.34,11.94,11.94c0,6.59-5.34,11.94-11.94,11.94
			C75.77,94.71,70.43,89.37,70.43,82.77z M56.85,43.16c-12.39,0-23.46,5.72-30.73,14.66c-5.55,6.81-8.87,15.51-8.87,24.95
			c0,21.84,17.77,39.61,39.6,39.61c17.69,0,32.7-11.65,37.77-27.68c1.19-3.77,1.84-7.78,1.84-11.94
			C96.46,60.93,78.69,43.16,56.85,43.16z M56.85,45.33c6.59,0,11.94,5.34,11.94,11.93c0,6.59-5.34,11.94-11.94,11.94
			c-6.58,0-11.93-5.34-11.93-11.94C44.92,50.67,50.26,45.33,56.85,45.33z M62.65,80.02c1.01,0,1.84,0.83,1.84,1.85v1.8
			c0,1.02-0.83,1.85-1.84,1.85H59.6v3.05c0,1.02-0.83,1.85-1.84,1.85h-1.81c-1.02,0-1.85-0.83-1.85-1.85v-3.05h-3.05
			c-1.02,0-1.85-0.83-1.85-1.85v-1.8c0-1.02,0.83-1.85,1.85-1.85h3.05v-3.05c0-1.02,0.83-1.85,1.85-1.85h1.81
			c1.01,0,1.84,0.83,1.84,1.85v3.05H62.65z M26.12,93.51c-3.97-1.94-6.71-6.01-6.71-10.73c0-4.72,2.74-8.8,6.71-10.73
			c1.57-0.78,3.35-1.2,5.22-1.2c6.59,0,11.94,5.34,11.94,11.94c0,6.59-5.34,11.94-11.94,11.94C29.47,94.71,27.69,94.28,26.12,93.51z
			 M56.85,120.22c-6.58,0-11.93-5.34-11.93-11.93c0-6.59,5.34-11.94,11.93-11.94c6.59,0,11.94,5.34,11.94,11.94
			C68.78,114.88,63.44,120.22,56.85,120.22z M70.43,82.77c0-6.59,5.34-11.94,11.94-11.94c6.59,0,11.94,5.34,11.94,11.94
			c0,6.59-5.34,11.94-11.94,11.94C75.77,94.71,70.43,89.37,70.43,82.77z M56.85,43.16c-12.39,0-23.46,5.72-30.73,14.66
			c-5.55,6.81-8.87,15.51-8.87,24.95c0,21.84,17.77,39.61,39.6,39.61c17.69,0,32.7-11.65,37.77-27.68
			c1.19-3.77,1.84-7.78,1.84-11.94C96.46,60.93,78.69,43.16,56.85,43.16z M56.85,45.33c6.59,0,11.94,5.34,11.94,11.93
			c0,6.59-5.34,11.94-11.94,11.94c-6.58,0-11.93-5.34-11.93-11.94C44.92,50.67,50.26,45.33,56.85,45.33z M62.65,80.02
			c1.01,0,1.84,0.83,1.84,1.85v1.8c0,1.02-0.83,1.85-1.84,1.85H59.6v3.05c0,1.02-0.83,1.85-1.84,1.85h-1.81
			c-1.02,0-1.85-0.83-1.85-1.85v-3.05h-3.05c-1.02,0-1.85-0.83-1.85-1.85v-1.8c0-1.02,0.83-1.85,1.85-1.85h3.05v-3.05
			c0-1.02,0.83-1.85,1.85-1.85h1.81c1.01,0,1.84,0.83,1.84,1.85v3.05H62.65z M26.12,93.51c-3.97-1.94-6.71-6.01-6.71-10.73
			c0-4.72,2.74-8.8,6.71-10.73c1.57-0.78,3.35-1.2,5.22-1.2c6.59,0,11.94,5.34,11.94,11.94c0,6.59-5.34,11.94-11.94,11.94
			C29.47,94.71,27.69,94.28,26.12,93.51z M56.85,120.22c-6.58,0-11.93-5.34-11.93-11.93c0-6.59,5.34-11.94,11.93-11.94
			c6.59,0,11.94,5.34,11.94,11.94C68.78,114.88,63.44,120.22,56.85,120.22z M70.43,82.77c0-6.59,5.34-11.94,11.94-11.94
			c6.59,0,11.94,5.34,11.94,11.94c0,6.59-5.34,11.94-11.94,11.94C75.77,94.71,70.43,89.37,70.43,82.77z M56.85,43.16
			c-12.39,0-23.46,5.72-30.73,14.66c-5.55,6.81-8.87,15.51-8.87,24.95c0,21.84,17.77,39.61,39.6,39.61
			c17.69,0,32.7-11.65,37.77-27.68c1.19-3.77,1.84-7.78,1.84-11.94C96.46,60.93,78.69,43.16,56.85,43.16z M56.85,45.33
			c6.59,0,11.94,5.34,11.94,11.93c0,6.59-5.34,11.94-11.94,11.94c-6.58,0-11.93-5.34-11.93-11.94
			C44.92,50.67,50.26,45.33,56.85,45.33z M62.65,80.02c1.01,0,1.84,0.83,1.84,1.85v1.8c0,1.02-0.83,1.85-1.84,1.85H59.6v3.05
			c0,1.02-0.83,1.85-1.84,1.85h-1.81c-1.02,0-1.85-0.83-1.85-1.85v-3.05h-3.05c-1.02,0-1.85-0.83-1.85-1.85v-1.8
			c0-1.02,0.83-1.85,1.85-1.85h3.05v-3.05c0-1.02,0.83-1.85,1.85-1.85h1.81c1.01,0,1.84,0.83,1.84,1.85v3.05H62.65z M26.12,93.51
			c-3.97-1.94-6.71-6.01-6.71-10.73c0-4.72,2.74-8.8,6.71-10.73c1.57-0.78,3.35-1.2,5.22-1.2c6.59,0,11.94,5.34,11.94,11.94
			c0,6.59-5.34,11.94-11.94,11.94C29.47,94.71,27.69,94.28,26.12,93.51z M56.85,120.22c-6.58,0-11.93-5.34-11.93-11.93
			c0-6.59,5.34-11.94,11.93-11.94c6.59,0,11.94,5.34,11.94,11.94C68.78,114.88,63.44,120.22,56.85,120.22z M70.43,82.77
			c0-6.59,5.34-11.94,11.94-11.94c6.59,0,11.94,5.34,11.94,11.94c0,6.59-5.34,11.94-11.94,11.94
			C75.77,94.71,70.43,89.37,70.43,82.77z M56.85,43.16c-12.39,0-23.46,5.72-30.73,14.66c-5.55,6.81-8.87,15.51-8.87,24.95
			c0,21.84,17.77,39.61,39.6,39.61c17.69,0,32.7-11.65,37.77-27.68c1.19-3.77,1.84-7.78,1.84-11.94
			C96.46,60.93,78.69,43.16,56.85,43.16z M56.85,45.33c6.59,0,11.94,5.34,11.94,11.93c0,6.59-5.34,11.94-11.94,11.94
			c-6.58,0-11.93-5.34-11.93-11.94C44.92,50.67,50.26,45.33,56.85,45.33z M62.65,80.02c1.01,0,1.84,0.83,1.84,1.85v1.8
			c0,1.02-0.83,1.85-1.84,1.85H59.6v3.05c0,1.02-0.83,1.85-1.84,1.85h-1.81c-1.02,0-1.85-0.83-1.85-1.85v-3.05h-3.05
			c-1.02,0-1.85-0.83-1.85-1.85v-1.8c0-1.02,0.83-1.85,1.85-1.85h3.05v-3.05c0-1.02,0.83-1.85,1.85-1.85h1.81
			c1.01,0,1.84,0.83,1.84,1.85v3.05H62.65z M26.12,93.51c-3.97-1.94-6.71-6.01-6.71-10.73c0-4.72,2.74-8.8,6.71-10.73
			c1.57-0.78,3.35-1.2,5.22-1.2c6.59,0,11.94,5.34,11.94,11.94c0,6.59-5.34,11.94-11.94,11.94C29.47,94.71,27.69,94.28,26.12,93.51z
			 M56.85,120.22c-6.58,0-11.93-5.34-11.93-11.93c0-6.59,5.34-11.94,11.93-11.94c6.59,0,11.94,5.34,11.94,11.94
			C68.78,114.88,63.44,120.22,56.85,120.22z M70.43,82.77c0-6.59,5.34-11.94,11.94-11.94c6.59,0,11.94,5.34,11.94,11.94
			c0,6.59-5.34,11.94-11.94,11.94C75.77,94.71,70.43,89.37,70.43,82.77z M56.85,43.16c-12.39,0-23.46,5.72-30.73,14.66
			c-5.55,6.81-8.87,15.51-8.87,24.95c0,21.84,17.77,39.61,39.6,39.61c17.69,0,32.7-11.65,37.77-27.68
			c1.19-3.77,1.84-7.78,1.84-11.94C96.46,60.93,78.69,43.16,56.85,43.16z M56.85,45.33c6.59,0,11.94,5.34,11.94,11.93
			c0,6.59-5.34,11.94-11.94,11.94c-6.58,0-11.93-5.34-11.93-11.94C44.92,50.67,50.26,45.33,56.85,45.33z M62.65,80.02
			c1.01,0,1.84,0.83,1.84,1.85v1.8c0,1.02-0.83,1.85-1.84,1.85H59.6v3.05c0,1.02-0.83,1.85-1.84,1.85h-1.81
			c-1.02,0-1.85-0.83-1.85-1.85v-3.05h-3.05c-1.02,0-1.85-0.83-1.85-1.85v-1.8c0-1.02,0.83-1.85,1.85-1.85h3.05v-3.05
			c0-1.02,0.83-1.85,1.85-1.85h1.81c1.01,0,1.84,0.83,1.84,1.85v3.05H62.65z M26.12,93.51c-3.97-1.94-6.71-6.01-6.71-10.73
			c0-4.72,2.74-8.8,6.71-10.73c1.57-0.78,3.35-1.2,5.22-1.2c6.59,0,11.94,5.34,11.94,11.94c0,6.59-5.34,11.94-11.94,11.94
			C29.47,94.71,27.69,94.28,26.12,93.51z M56.85,120.22c-6.58,0-11.93-5.34-11.93-11.93c0-6.59,5.34-11.94,11.93-11.94
			c6.59,0,11.94,5.34,11.94,11.94C68.78,114.88,63.44,120.22,56.85,120.22z M70.43,82.77c0-6.59,5.34-11.94,11.94-11.94
			c6.59,0,11.94,5.34,11.94,11.94c0,6.59-5.34,11.94-11.94,11.94C75.77,94.71,70.43,89.37,70.43,82.77z M56.85,43.16
			c-12.39,0-23.46,5.72-30.73,14.66c-5.55,6.81-8.87,15.51-8.87,24.95c0,21.84,17.77,39.61,39.6,39.61
			c17.69,0,32.7-11.65,37.77-27.68c1.19-3.77,1.84-7.78,1.84-11.94C96.46,60.93,78.69,43.16,56.85,43.16z M56.85,45.33
			c6.59,0,11.94,5.34,11.94,11.93c0,6.59-5.34,11.94-11.94,11.94c-6.58,0-11.93-5.34-11.93-11.94
			C44.92,50.67,50.26,45.33,56.85,45.33z M62.65,80.02c1.01,0,1.84,0.83,1.84,1.85v1.8c0,1.02-0.83,1.85-1.84,1.85H59.6v3.05
			c0,1.02-0.83,1.85-1.84,1.85h-1.81c-1.02,0-1.85-0.83-1.85-1.85v-3.05h-3.05c-1.02,0-1.85-0.83-1.85-1.85v-1.8
			c0-1.02,0.83-1.85,1.85-1.85h3.05v-3.05c0-1.02,0.83-1.85,1.85-1.85h1.81c1.01,0,1.84,0.83,1.84,1.85v3.05H62.65z M26.12,93.51
			c-3.97-1.94-6.71-6.01-6.71-10.73c0-4.72,2.74-8.8,6.71-10.73c1.57-0.78,3.35-1.2,5.22-1.2c6.59,0,11.94,5.34,11.94,11.94
			c0,6.59-5.34,11.94-11.94,11.94C29.47,94.71,27.69,94.28,26.12,93.51z M56.85,120.22c-6.58,0-11.93-5.34-11.93-11.93
			c0-6.59,5.34-11.94,11.93-11.94c6.59,0,11.94,5.34,11.94,11.94C68.78,114.88,63.44,120.22,56.85,120.22z M70.43,82.77
			c0-6.59,5.34-11.94,11.94-11.94c6.59,0,11.94,5.34,11.94,11.94c0,6.59-5.34,11.94-11.94,11.94
			C75.77,94.71,70.43,89.37,70.43,82.77z M56.85,43.16c-12.39,0-23.46,5.72-30.73,14.66c-5.55,6.81-8.87,15.51-8.87,24.95
			c0,21.84,17.77,39.61,39.6,39.61c17.69,0,32.7-11.65,37.77-27.68c1.19-3.77,1.84-7.78,1.84-11.94
			C96.46,60.93,78.69,43.16,56.85,43.16z M56.85,45.33c6.59,0,11.94,5.34,11.94,11.93c0,6.59-5.34,11.94-11.94,11.94
			c-6.58,0-11.93-5.34-11.93-11.94C44.92,50.67,50.26,45.33,56.85,45.33z M62.65,80.02c1.01,0,1.84,0.83,1.84,1.85v1.8
			c0,1.02-0.83,1.85-1.84,1.85H59.6v3.05c0,1.02-0.83,1.85-1.84,1.85h-1.81c-1.02,0-1.85-0.83-1.85-1.85v-3.05h-3.05
			c-1.02,0-1.85-0.83-1.85-1.85v-1.8c0-1.02,0.83-1.85,1.85-1.85h3.05v-3.05c0-1.02,0.83-1.85,1.85-1.85h1.81
			c1.01,0,1.84,0.83,1.84,1.85v3.05H62.65z M26.12,93.51c-3.97-1.94-6.71-6.01-6.71-10.73c0-4.72,2.74-8.8,6.71-10.73
			c1.57-0.78,3.35-1.2,5.22-1.2c6.59,0,11.94,5.34,11.94,11.94c0,6.59-5.34,11.94-11.94,11.94C29.47,94.71,27.69,94.28,26.12,93.51z
			 M56.85,120.22c-6.58,0-11.93-5.34-11.93-11.93c0-6.59,5.34-11.94,11.93-11.94c6.59,0,11.94,5.34,11.94,11.94
			C68.78,114.88,63.44,120.22,56.85,120.22z M70.43,82.77c0-6.59,5.34-11.94,11.94-11.94c6.59,0,11.94,5.34,11.94,11.94
			c0,6.59-5.34,11.94-11.94,11.94C75.77,94.71,70.43,89.37,70.43,82.77z M56.85,43.16c-12.39,0-23.46,5.72-30.73,14.66
			c-5.55,6.81-8.87,15.51-8.87,24.95c0,21.84,17.77,39.61,39.6,39.61c17.69,0,32.7-11.65,37.77-27.68
			c1.19-3.77,1.84-7.78,1.84-11.94C96.46,60.93,78.69,43.16,56.85,43.16z M56.85,45.33c6.59,0,11.94,5.34,11.94,11.93
			c0,6.59-5.34,11.94-11.94,11.94c-6.58,0-11.93-5.34-11.93-11.94C44.92,50.67,50.26,45.33,56.85,45.33z M62.65,80.02
			c1.01,0,1.84,0.83,1.84,1.85v1.8c0,1.02-0.83,1.85-1.84,1.85H59.6v3.05c0,1.02-0.83,1.85-1.84,1.85h-1.81
			c-1.02,0-1.85-0.83-1.85-1.85v-3.05h-3.05c-1.02,0-1.85-0.83-1.85-1.85v-1.8c0-1.02,0.83-1.85,1.85-1.85h3.05v-3.05
			c0-1.02,0.83-1.85,1.85-1.85h1.81c1.01,0,1.84,0.83,1.84,1.85v3.05H62.65z M26.12,93.51c-3.97-1.94-6.71-6.01-6.71-10.73
			c0-4.72,2.74-8.8,6.71-10.73c1.57-0.78,3.35-1.2,5.22-1.2c6.59,0,11.94,5.34,11.94,11.94c0,6.59-5.34,11.94-11.94,11.94
			C29.47,94.71,27.69,94.28,26.12,93.51z M56.85,120.22c-6.58,0-11.93-5.34-11.93-11.93c0-6.59,5.34-11.94,11.93-11.94
			c6.59,0,11.94,5.34,11.94,11.94C68.78,114.88,63.44,120.22,56.85,120.22z M70.43,82.77c0-6.59,5.34-11.94,11.94-11.94
			c6.59,0,11.94,5.34,11.94,11.94c0,6.59-5.34,11.94-11.94,11.94C75.77,94.71,70.43,89.37,70.43,82.77z"/>
	</g>
</g>
</svg>
