<?xml version="1.0" encoding="utf-8"?>
<!-- Generator: Adobe Illustrator 26.5.0, SVG Export Plug-In . SVG Version: 6.00 Build 0)  -->
<svg version="1.1" id="图层_1" xmlns="http://www.w3.org/2000/svg" xmlns:xlink="http://www.w3.org/1999/xlink" x="0px" y="0px"
	 viewBox="0 0 22.68 22.68" style="enable-background:new 0 0 22.68 22.68;" xml:space="preserve">
<style type="text/css">
	.st0{fill:#FFFFFF;}
	.st1{fill:#0090F5;}
	.st2{fill:#FF4CCD;}
	.st3{fill:#9B6AF6;}
	.st4{fill:#BE60EF;}
	.st5{fill:#34CBF0;}
	.st6{fill:#5CB1D6;}
	.st7{fill:none;stroke:#2E8EB8;stroke-linecap:round;stroke-miterlimit:10;}
	.st8{fill:none;stroke:#FFFFFF;stroke-width:1.2;stroke-linecap:round;stroke-miterlimit:10;}
</style>
<g id="XMLID_00000064332656542466190760000003885663620856589749_">
	<path class="st0" d="M11.34,2.87c-4.68,0-8.47,3.79-8.47,8.47c0,4.68,3.79,8.47,8.47,8.47c4.68,0,8.47-3.79,8.47-8.47
		C19.81,6.66,16.02,2.87,11.34,2.87z M5.69,13.46c-1.17,0-2.12-0.95-2.12-2.12c0-1.17,0.95-2.12,2.12-2.12
		c1.17,0,2.12,0.95,2.12,2.12C7.81,12.51,6.86,13.46,5.69,13.46z M11.34,19.1c-1.17,0-2.12-0.95-2.12-2.12
		c0-1.17,0.95-2.12,2.12-2.12c1.17,0,2.12,0.95,2.12,2.12C13.46,18.15,12.51,19.1,11.34,19.1z M13.17,10.64v1.41h-1.13v1.13h-1.41
		v-1.13H9.5v-1.41h1.13V9.5h1.41v1.13H13.17z M11.34,7.81c-1.17,0-2.12-0.95-2.12-2.12c0-1.17,0.95-2.12,2.12-2.12
		c1.17,0,2.12,0.95,2.12,2.12C13.46,6.86,12.51,7.81,11.34,7.81z M16.98,13.46c-1.17,0-2.12-0.95-2.12-2.12
		c0-1.17,0.95-2.12,2.12-2.12c1.17,0,2.12,0.95,2.12,2.12C19.1,12.51,18.15,13.46,16.98,13.46z"/>
</g>
</svg>
