<?xml version="1.0" encoding="utf-8"?>
<!-- Generator: Adobe Illustrator 26.5.0, SVG Export Plug-In . SVG Version: 6.00 Build 0)  -->
<svg version="1.1" id="图层_1" xmlns="http://www.w3.org/2000/svg" xmlns:xlink="http://www.w3.org/1999/xlink" x="0px" y="0px"
	 viewBox="0 0 22.68 22.68" style="enable-background:new 0 0 22.68 22.68;" xml:space="preserve">
<style type="text/css">
	.st0{fill:#FFFFFF;}
	.st1{fill:#0090F5;}
	.st2{fill:#FF4CCD;}
	.st3{fill:#9B6AF6;}
	.st4{fill:#BE60EF;}
	.st5{fill:#34CBF0;}
	.st6{fill:#5CB1D6;}
	.st7{fill:none;stroke:#2E8EB8;stroke-linecap:round;stroke-miterlimit:10;}
	.st8{fill:none;stroke:#FFFFFF;stroke-width:1.2;stroke-linecap:round;stroke-miterlimit:10;}
</style>
<path class="st0" d="M11.16,4.66l-0.11,0.23l-3.63,7.77c-0.08-0.06-0.16-0.12-0.24-0.18c-0.22-0.15-0.47-0.26-0.74-0.34
	c-0.25-0.08-0.53-0.12-0.8-0.12c-0.08,0-0.15,0-0.23,0.01c-0.34,0.03-0.67,0.11-0.97,0.25c-0.31,0.14-0.58,0.33-0.81,0.58
	c-0.23,0.25-0.41,0.54-0.53,0.86c-0.12,0.33-0.17,0.65-0.14,0.96c0.03,0.31,0.12,0.61,0.28,0.88c0.15,0.27,0.36,0.51,0.61,0.73
	c0.25,0.21,0.54,0.4,0.88,0.56c0.3,0.14,0.6,0.21,0.91,0.21c0.04,0,0.07,0,0.11,0c0.34-0.02,0.66-0.11,0.97-0.26
	c0.3-0.15,0.57-0.36,0.82-0.62c0.24-0.26,0.45-0.55,0.6-0.87l0.17-0.37l3.66-7.93l5.12,1.35l-2.5,5.33
	c-0.25-0.25-0.56-0.46-0.92-0.63c-0.26-0.12-0.53-0.18-0.81-0.18c-0.09,0-0.17,0.01-0.26,0.02c-0.36,0.05-0.7,0.16-1.02,0.35
	c-0.31,0.18-0.6,0.41-0.84,0.7c-0.25,0.28-0.43,0.59-0.55,0.91c-0.12,0.33-0.16,0.65-0.11,0.95c0.05,0.3,0.16,0.57,0.33,0.82
	c0.17,0.24,0.39,0.46,0.66,0.65c0.25,0.18,0.54,0.35,0.85,0.49c0.36,0.17,0.71,0.26,1.03,0.26c0.13,0,0.26-0.01,0.38-0.04
	c0.4-0.09,0.75-0.25,1.03-0.47c0.32-0.24,0.6-0.55,0.85-0.92l0.01-0.02l0.01-0.02l4.35-9.29l0.16-0.34l-0.36-0.09l-7.96-2.1
	L11.16,4.66z"/>
</svg>
