<?xml version="1.0" encoding="utf-8"?>
<!-- Generator: Adobe Illustrator 27.6.1, SVG Export Plug-In . SVG Version: 6.00 Build 0)  -->
<svg version="1.1" id="图层_1" xmlns="http://www.w3.org/2000/svg" xmlns:xlink="http://www.w3.org/1999/xlink" x="0px" y="0px"
	 viewBox="0 0 141.73 141.73" style="enable-background:new 0 0 141.73 141.73;" xml:space="preserve">
<style type="text/css">
	.st0{fill:#FFFFFF;}
</style>
<g>
	<g>
		<path class="st0" d="M39.82,33.1c-14.46,0-26.22,11.76-26.22,26.22s11.76,26.21,26.22,26.21c14.45,0,26.21-11.75,26.21-26.21
			S54.27,33.1,39.82,33.1z M39.82,78.13C29.43,78.13,21,69.71,21,59.32S29.43,40.5,39.82,40.5s18.81,8.43,18.81,18.82
			S50.21,78.13,39.82,78.13z M39.82,33.1c-14.46,0-26.22,11.76-26.22,26.22s11.76,26.21,26.22,26.21
			c14.45,0,26.21-11.75,26.21-26.21S54.27,33.1,39.82,33.1z M39.82,78.13C29.43,78.13,21,69.71,21,59.32S29.43,40.5,39.82,40.5
			s18.81,8.43,18.81,18.82S50.21,78.13,39.82,78.13z M39.82,33.1c-14.46,0-26.22,11.76-26.22,26.22s11.76,26.21,26.22,26.21
			c14.45,0,26.21-11.75,26.21-26.21S54.27,33.1,39.82,33.1z M39.82,78.13C29.43,78.13,21,69.71,21,59.32S29.43,40.5,39.82,40.5
			s18.81,8.43,18.81,18.82S50.21,78.13,39.82,78.13z M39.82,33.1c-14.46,0-26.22,11.76-26.22,26.22s11.76,26.21,26.22,26.21
			c14.45,0,26.21-11.75,26.21-26.21S54.27,33.1,39.82,33.1z M39.82,78.13C29.43,78.13,21,69.71,21,59.32S29.43,40.5,39.82,40.5
			s18.81,8.43,18.81,18.82S50.21,78.13,39.82,78.13z M39.82,33.1c-14.46,0-26.22,11.76-26.22,26.22s11.76,26.21,26.22,26.21
			c14.45,0,26.21-11.75,26.21-26.21S54.27,33.1,39.82,33.1z M39.82,78.13C29.43,78.13,21,69.71,21,59.32S29.43,40.5,39.82,40.5
			s18.81,8.43,18.81,18.82S50.21,78.13,39.82,78.13z M101.92,33.1c-14.46,0-26.22,11.76-26.22,26.22s11.76,26.21,26.22,26.21
			s26.22-11.75,26.22-26.21S116.38,33.1,101.92,33.1z M101.92,78.13c-10.39,0-18.81-8.42-18.81-18.81s8.42-18.82,18.81-18.82
			s18.81,8.43,18.81,18.82S112.31,78.13,101.92,78.13z M101.92,33.1c-14.46,0-26.22,11.76-26.22,26.22s11.76,26.21,26.22,26.21
			s26.22-11.75,26.22-26.21S116.38,33.1,101.92,33.1z M101.92,78.13c-10.39,0-18.81-8.42-18.81-18.81s8.42-18.82,18.81-18.82
			s18.81,8.43,18.81,18.82S112.31,78.13,101.92,78.13z M39.82,33.1c-14.46,0-26.22,11.76-26.22,26.22s11.76,26.21,26.22,26.21
			c14.45,0,26.21-11.75,26.21-26.21S54.27,33.1,39.82,33.1z M39.82,78.13C29.43,78.13,21,69.71,21,59.32S29.43,40.5,39.82,40.5
			s18.81,8.43,18.81,18.82S50.21,78.13,39.82,78.13z M39.82,33.1c-14.46,0-26.22,11.76-26.22,26.22s11.76,26.21,26.22,26.21
			c14.45,0,26.21-11.75,26.21-26.21S54.27,33.1,39.82,33.1z M39.82,78.13C29.43,78.13,21,69.71,21,59.32S29.43,40.5,39.82,40.5
			s18.81,8.43,18.81,18.82S50.21,78.13,39.82,78.13z M76.88,70.05c-1.42-3.29-2.21-6.92-2.21-10.73c0-3.65,0.72-7.13,2.03-10.32
			H65.03c1.31,3.19,2.03,6.67,2.03,10.32c0,3.81-0.78,7.44-2.21,10.73H76.88z M101.92,33.1c-14.46,0-26.22,11.76-26.22,26.22
			s11.76,26.21,26.22,26.21s26.22-11.75,26.22-26.21S116.38,33.1,101.92,33.1z M101.92,78.13c-10.39,0-18.81-8.42-18.81-18.81
			s8.42-18.82,18.81-18.82s18.81,8.43,18.81,18.82S112.31,78.13,101.92,78.13z M101.92,33.1c-14.46,0-26.22,11.76-26.22,26.22
			s11.76,26.21,26.22,26.21s26.22-11.75,26.22-26.21S116.38,33.1,101.92,33.1z M101.92,78.13c-10.39,0-18.81-8.42-18.81-18.81
			s8.42-18.82,18.81-18.82s18.81,8.43,18.81,18.82S112.31,78.13,101.92,78.13z M76.88,70.05c-1.42-3.29-2.21-6.92-2.21-10.73
			c0-3.65,0.72-7.13,2.03-10.32H65.03c1.31,3.19,2.03,6.67,2.03,10.32c0,3.81-0.78,7.44-2.21,10.73H76.88z M39.82,33.1
			c-14.46,0-26.22,11.76-26.22,26.22s11.76,26.21,26.22,26.21c14.45,0,26.21-11.75,26.21-26.21S54.27,33.1,39.82,33.1z M39.82,78.13
			C29.43,78.13,21,69.71,21,59.32S29.43,40.5,39.82,40.5s18.81,8.43,18.81,18.82S50.21,78.13,39.82,78.13z M39.82,33.1
			c-14.46,0-26.22,11.76-26.22,26.22s11.76,26.21,26.22,26.21c14.45,0,26.21-11.75,26.21-26.21S54.27,33.1,39.82,33.1z M39.82,78.13
			C29.43,78.13,21,69.71,21,59.32S29.43,40.5,39.82,40.5s18.81,8.43,18.81,18.82S50.21,78.13,39.82,78.13z M76.88,70.05
			c-1.42-3.29-2.21-6.92-2.21-10.73c0-3.65,0.72-7.13,2.03-10.32H65.03c1.31,3.19,2.03,6.67,2.03,10.32c0,3.81-0.78,7.44-2.21,10.73
			H76.88z M101.92,33.1c-14.46,0-26.22,11.76-26.22,26.22s11.76,26.21,26.22,26.21s26.22-11.75,26.22-26.21S116.38,33.1,101.92,33.1
			z M101.92,78.13c-10.39,0-18.81-8.42-18.81-18.81s8.42-18.82,18.81-18.82s18.81,8.43,18.81,18.82S112.31,78.13,101.92,78.13z
			 M101.92,33.1c-14.46,0-26.22,11.76-26.22,26.22s11.76,26.21,26.22,26.21s26.22-11.75,26.22-26.21S116.38,33.1,101.92,33.1z
			 M101.92,78.13c-10.39,0-18.81-8.42-18.81-18.81s8.42-18.82,18.81-18.82s18.81,8.43,18.81,18.82S112.31,78.13,101.92,78.13z
			 M76.7,49H65.03c1.31,3.19,2.03,6.67,2.03,10.32c0,3.81-0.78,7.44-2.21,10.73h12.02c-1.42-3.29-2.21-6.92-2.21-10.73
			C74.67,55.67,75.39,52.19,76.7,49z M39.82,33.1c-14.46,0-26.22,11.76-26.22,26.22s11.76,26.21,26.22,26.21
			c14.45,0,26.21-11.75,26.21-26.21S54.27,33.1,39.82,33.1z M39.82,78.13C29.43,78.13,21,69.71,21,59.32S29.43,40.5,39.82,40.5
			s18.81,8.43,18.81,18.82S50.21,78.13,39.82,78.13z M100.97,23.83h-2.26c-1.16,1.16-2.2,2.2-3.65,3.65H46.67
			c-1.45-1.45-2.5-2.5-3.65-3.65h-2.26c-9.76,0-18.62,3.99-25.05,10.42C9.28,40.69,5.29,49.56,5.29,59.32
			c0,19.51,15.96,35.48,35.48,35.48h60.21c9.75,0,18.62-3.99,25.05-10.42c6.43-6.43,10.42-15.29,10.42-25.05
			C136.45,39.81,120.48,23.83,100.97,23.83z M101.92,86.56c-10.81,0-20.18-6.33-24.58-15.48H64.39C60,80.24,50.64,86.56,39.82,86.56
			c-15.03,0-27.25-12.22-27.25-27.24c0-15.03,12.22-27.25,27.25-27.25c10.98,0,20.45,6.52,24.75,15.9h12.58
			c4.3-9.38,13.79-15.9,24.76-15.9c15.02,0,27.25,12.22,27.25,27.25C129.17,74.34,116.94,86.56,101.92,86.56z M101.92,33.1
			c-14.46,0-26.22,11.76-26.22,26.22s11.76,26.21,26.22,26.21s26.22-11.75,26.22-26.21S116.38,33.1,101.92,33.1z M101.92,78.13
			c-10.39,0-18.81-8.42-18.81-18.81s8.42-18.82,18.81-18.82s18.81,8.43,18.81,18.82S112.31,78.13,101.92,78.13z M92.78,25.95
			c0.83-0.83,1.28-1.29,2.1-2.12H46.85l2.12,2.12H92.78z M76.7,49H65.03c1.31,3.19,2.03,6.67,2.03,10.32
			c0,3.81-0.78,7.44-2.21,10.73h12.02c-1.42-3.29-2.21-6.92-2.21-10.73C74.67,55.67,75.39,52.19,76.7,49z M39.82,33.1
			c-14.46,0-26.22,11.76-26.22,26.22s11.76,26.21,26.22,26.21c14.45,0,26.21-11.75,26.21-26.21S54.27,33.1,39.82,33.1z M39.82,78.13
			C29.43,78.13,21,69.71,21,59.32S29.43,40.5,39.82,40.5s18.81,8.43,18.81,18.82S50.21,78.13,39.82,78.13z M39.82,33.1
			c-14.46,0-26.22,11.76-26.22,26.22s11.76,26.21,26.22,26.21c14.45,0,26.21-11.75,26.21-26.21S54.27,33.1,39.82,33.1z M39.82,78.13
			C29.43,78.13,21,69.71,21,59.32S29.43,40.5,39.82,40.5s18.81,8.43,18.81,18.82S50.21,78.13,39.82,78.13z M76.88,70.05
			c-1.42-3.29-2.21-6.92-2.21-10.73c0-3.65,0.72-7.13,2.03-10.32H65.03c1.31,3.19,2.03,6.67,2.03,10.32c0,3.81-0.78,7.44-2.21,10.73
			H76.88z M101.92,33.1c-14.46,0-26.22,11.76-26.22,26.22s11.76,26.21,26.22,26.21s26.22-11.75,26.22-26.21S116.38,33.1,101.92,33.1
			z M101.92,78.13c-10.39,0-18.81-8.42-18.81-18.81s8.42-18.82,18.81-18.82s18.81,8.43,18.81,18.82S112.31,78.13,101.92,78.13z
			 M101.92,33.1c-14.46,0-26.22,11.76-26.22,26.22s11.76,26.21,26.22,26.21s26.22-11.75,26.22-26.21S116.38,33.1,101.92,33.1z
			 M101.92,78.13c-10.39,0-18.81-8.42-18.81-18.81s8.42-18.82,18.81-18.82s18.81,8.43,18.81,18.82S112.31,78.13,101.92,78.13z
			 M76.88,70.05c-1.42-3.29-2.21-6.92-2.21-10.73c0-3.65,0.72-7.13,2.03-10.32H65.03c1.31,3.19,2.03,6.67,2.03,10.32
			c0,3.81-0.78,7.44-2.21,10.73H76.88z M39.82,33.1c-14.46,0-26.22,11.76-26.22,26.22s11.76,26.21,26.22,26.21
			c14.45,0,26.21-11.75,26.21-26.21S54.27,33.1,39.82,33.1z M39.82,78.13C29.43,78.13,21,69.71,21,59.32S29.43,40.5,39.82,40.5
			s18.81,8.43,18.81,18.82S50.21,78.13,39.82,78.13z M39.82,33.1c-14.46,0-26.22,11.76-26.22,26.22s11.76,26.21,26.22,26.21
			c14.45,0,26.21-11.75,26.21-26.21S54.27,33.1,39.82,33.1z M39.82,78.13C29.43,78.13,21,69.71,21,59.32S29.43,40.5,39.82,40.5
			s18.81,8.43,18.81,18.82S50.21,78.13,39.82,78.13z M101.92,33.1c-14.46,0-26.22,11.76-26.22,26.22s11.76,26.21,26.22,26.21
			s26.22-11.75,26.22-26.21S116.38,33.1,101.92,33.1z M101.92,78.13c-10.39,0-18.81-8.42-18.81-18.81s8.42-18.82,18.81-18.82
			s18.81,8.43,18.81,18.82S112.31,78.13,101.92,78.13z M101.92,33.1c-14.46,0-26.22,11.76-26.22,26.22s11.76,26.21,26.22,26.21
			s26.22-11.75,26.22-26.21S116.38,33.1,101.92,33.1z M101.92,78.13c-10.39,0-18.81-8.42-18.81-18.81s8.42-18.82,18.81-18.82
			s18.81,8.43,18.81,18.82S112.31,78.13,101.92,78.13z M39.82,33.1c-14.46,0-26.22,11.76-26.22,26.22s11.76,26.21,26.22,26.21
			c14.45,0,26.21-11.75,26.21-26.21S54.27,33.1,39.82,33.1z M39.82,78.13C29.43,78.13,21,69.71,21,59.32S29.43,40.5,39.82,40.5
			s18.81,8.43,18.81,18.82S50.21,78.13,39.82,78.13z M39.82,33.1c-14.46,0-26.22,11.76-26.22,26.22s11.76,26.21,26.22,26.21
			c14.45,0,26.21-11.75,26.21-26.21S54.27,33.1,39.82,33.1z M39.82,78.13C29.43,78.13,21,69.71,21,59.32S29.43,40.5,39.82,40.5
			s18.81,8.43,18.81,18.82S50.21,78.13,39.82,78.13z M39.82,33.1c-14.46,0-26.22,11.76-26.22,26.22s11.76,26.21,26.22,26.21
			c14.45,0,26.21-11.75,26.21-26.21S54.27,33.1,39.82,33.1z M39.82,78.13C29.43,78.13,21,69.71,21,59.32S29.43,40.5,39.82,40.5
			s18.81,8.43,18.81,18.82S50.21,78.13,39.82,78.13z M39.82,33.1c-14.46,0-26.22,11.76-26.22,26.22s11.76,26.21,26.22,26.21
			c14.45,0,26.21-11.75,26.21-26.21S54.27,33.1,39.82,33.1z M39.82,78.13C29.43,78.13,21,69.71,21,59.32S29.43,40.5,39.82,40.5
			s18.81,8.43,18.81,18.82S50.21,78.13,39.82,78.13z M39.82,33.1c-14.46,0-26.22,11.76-26.22,26.22s11.76,26.21,26.22,26.21
			c14.45,0,26.21-11.75,26.21-26.21S54.27,33.1,39.82,33.1z M39.82,78.13C29.43,78.13,21,69.71,21,59.32S29.43,40.5,39.82,40.5
			s18.81,8.43,18.81,18.82S50.21,78.13,39.82,78.13z"/>
	</g>
	<g>
		<rect x="52.98" y="97.93" class="st0" width="35.77" height="19.97"/>
	</g>
	<g>
		<path class="st0" d="M94.88,23.83c-0.83,0.83-1.28,1.29-2.1,2.12H48.97l-2.12-2.12H94.88z"/>
	</g>
</g>
</svg>
