<?xml version="1.0" encoding="utf-8"?>
<!-- Generator: Adobe Illustrator 26.5.0, SVG Export Plug-In . SVG Version: 6.00 Build 0)  -->
<svg version="1.1" id="图层_1" xmlns="http://www.w3.org/2000/svg" xmlns:xlink="http://www.w3.org/1999/xlink" x="0px" y="0px"
	 viewBox="0 0 22.68 22.68" style="enable-background:new 0 0 22.68 22.68;" xml:space="preserve">
<style type="text/css">
	.st0{fill:#FFFFFF;}
	.st1{fill:#0090F5;}
	.st2{fill:#FF4CCD;}
	.st3{fill:#9B6AF6;}
	.st4{fill:#BE60EF;}
	.st5{fill:#34CBF0;}
	.st6{fill:#5CB1D6;}
	.st7{fill:none;stroke:#2E8EB8;stroke-linecap:round;stroke-miterlimit:10;}
	.st8{fill:none;stroke:#FFFFFF;stroke-width:1.2;stroke-linecap:round;stroke-miterlimit:10;}
</style>
<path class="st0" d="M12,10.68V9.39h-1.32v1.29H9.4V12h1.28v1.28H12V12h1.29v-1.32H12z M12,10.68V9.39h-1.32v1.29H9.4V12h1.28v1.28
	H12V12h1.29v-1.32H12z M12,10.68V9.39h-1.32v1.29H9.4V12h1.28v1.28H12V12h1.29v-1.32H12z M12,10.68V9.39h-1.32v1.29H9.4V12h1.28
	v1.28H12V12h1.29v-1.32H12z M16.67,2.83H6.01C4.26,2.83,2.84,4.25,2.84,6v10.67c0,1.75,1.42,3.17,3.17,3.17h10.66
	c1.76,0,3.17-1.42,3.17-3.17V6C19.84,4.25,18.43,2.83,16.67,2.83z M14.62,11.34c0,1.14-0.59,2.15-1.48,2.73
	c-0.52,0.34-1.14,0.54-1.8,0.54c-0.66,0-1.28-0.2-1.8-0.54c-0.89-0.58-1.48-1.59-1.48-2.73c0-1.14,0.59-2.15,1.48-2.74
	c0.52-0.34,1.14-0.54,1.8-0.54c0.66,0,1.28,0.2,1.8,0.54C14.03,9.19,14.62,10.2,14.62,11.34z M5.29,14.07
	c-0.43,0-0.78-0.35-0.78-0.78V9.38c0-0.43,0.35-0.78,0.78-0.78h2.77c-0.63,0.74-1,1.7-1,2.74c0,1.03,0.37,1.99,1,2.73H5.29z
	 M18.17,13.29c0,0.43-0.35,0.78-0.78,0.78h-2.77c0.63-0.74,1-1.7,1-2.73c0-1.04-0.37-2-1-2.74h2.77c0.43,0,0.78,0.35,0.78,0.78
	V13.29z M10.68,9.39v1.29H9.4V12h1.28v1.28H12V12h1.29v-1.32H12V9.39H10.68z M12,10.68V9.39h-1.32v1.29H9.4V12h1.28v1.28H12V12h1.29
	v-1.32H12z M12,10.68V9.39h-1.32v1.29H9.4V12h1.28v1.28H12V12h1.29v-1.32H12z"/>
</svg>
