<?xml version="1.0" encoding="utf-8"?>
<!-- Generator: Adobe Illustrator 27.6.1, SVG Export Plug-In . SVG Version: 6.00 Build 0)  -->
<svg version="1.1" id="图层_1" xmlns="http://www.w3.org/2000/svg" xmlns:xlink="http://www.w3.org/1999/xlink" x="0px" y="0px"
	 viewBox="0 0 141.73 141.73" style="enable-background:new 0 0 141.73 141.73;" xml:space="preserve">
<style type="text/css">
	.st0{fill:#FFFFFF;}
</style>
<g>
	<g>
		<path class="st0" d="M105.57,19.52h-69.4c-9.2,0-16.65,7.45-16.65,16.65v69.4c0,9.2,7.45,16.65,16.65,16.65h69.4
			c9.2,0,16.65-7.45,16.65-16.65v-69.4C122.21,26.97,114.76,19.52,105.57,19.52z M108.18,77.84l-25.73,4.8l-4.79,25.73H63.7
			l-4.79-25.73l-25.74-4.8V63.89l25.74-4.79l4.79-25.74h13.96l4.79,25.74l25.73,4.79V77.84z"/>
	</g>
	<g>
		<path class="st0" d="M17.28,42.7v56.34h-0.42c-1.7,0-3.07-1.38-3.07-3.07V45.78c0-1.7,1.37-3.08,3.07-3.08H17.28z"/>
	</g>
	<g>
		<path class="st0" d="M127.95,45.78v50.18c0,1.69-1.37,3.07-3.07,3.07h-0.42V42.7h0.42C126.58,42.7,127.95,44.08,127.95,45.78z"/>
	</g>
	<g>
		<rect x="59.54" y="68.17" class="st0" width="22.27" height="5.39"/>
	</g>
	<g>
		<rect x="67.98" y="59.73" class="st0" width="5.39" height="22.27"/>
	</g>
</g>
</svg>
