<?xml version="1.0" encoding="utf-8"?>
<!-- Generator: Adobe Illustrator 26.5.0, SVG Export Plug-In . SVG Version: 6.00 Build 0)  -->
<svg version="1.1" id="图层_1" xmlns="http://www.w3.org/2000/svg" xmlns:xlink="http://www.w3.org/1999/xlink" x="0px" y="0px"
	 viewBox="0 0 22.68 22.68" style="enable-background:new 0 0 22.68 22.68;" xml:space="preserve">
<style type="text/css">
	.st0{fill:#FFFFFF;}
	.st1{fill:#0090F5;}
	.st2{fill:#FF4CCD;}
	.st3{fill:#9B6AF6;}
	.st4{fill:#BE60EF;}
	.st5{fill:#34CBF0;}
	.st6{fill:#5CB1D6;}
	.st7{fill:none;stroke:#2E8EB8;stroke-linecap:round;stroke-miterlimit:10;}
	.st8{fill:none;stroke:#FFFFFF;stroke-width:1.2;stroke-linecap:round;stroke-miterlimit:10;}
</style>
<g>
	<g>
		<path class="st0" d="M18.02,6.76H4.66c-1.26,0-2.29,1.03-2.29,2.29v4.84c0,1.27,1.03,2.3,2.29,2.3h13.36
			c1.26,0,2.29-1.03,2.29-2.3V9.05C20.31,7.79,19.28,6.76,18.02,6.76z M15.96,14.87c-1.43,0-2.65-0.89-3.13-2.15h-3.1
			c-0.47,1.26-1.7,2.15-3.13,2.15c-1.85,0-3.34-1.49-3.34-3.34c0-1.85,1.49-3.35,3.34-3.35h9.35c1.85,0,3.35,1.5,3.35,3.35
			C19.31,13.38,17.81,14.87,15.96,14.87z"/>
	</g>
	<g>
		<g>
			<path class="st0" d="M16.01,8.76H6.56c-1.53,0-2.77,1.24-2.77,2.77c0,1.53,1.24,2.77,2.77,2.77c1.44,0,2.63-1.1,2.75-2.51h3.94
				c0.12,1.41,1.31,2.51,2.75,2.51c1.54,0,2.77-1.24,2.77-2.77C18.78,9.99,17.55,8.76,16.01,8.76z M6.56,13.71
				c-1.2,0-2.18-0.98-2.18-2.18c0-1.2,0.98-2.18,2.18-2.18c1.2,0,2.18,0.98,2.18,2.18c0,0.08-0.01,0.17-0.02,0.26
				C8.6,12.87,7.68,13.71,6.56,13.71z M16.01,13.71c-1.12,0-2.04-0.85-2.17-1.93c-0.01-0.08-0.02-0.17-0.02-0.26
				c0-1.2,0.98-2.18,2.18-2.18c1.2,0,2.18,0.98,2.18,2.18C18.19,12.73,17.21,13.71,16.01,13.71z"/>
		</g>
	</g>
</g>
</svg>
