<?xml version="1.0" encoding="UTF-8"?>
<svg version="1.1" xmlns="http://www.w3.org/2000/svg" xmlns:xlink="http://www.w3.org/1999/xlink" width="48" height="48" viewBox="0 0 48 48">
	<g fill="none" fill-rule="evenodd">
		<circle fill="#4280D7" cx="24" cy="24" r="21">
		</circle>
		<g fill="#FFF">
			<path d="M24 2c12.15 0 22 9.85 22 22s-9.85 22-22 22S2 36.15 2 24 11.85 2 24 2zM3.948 28.248c1.655 7.814 7.774 13.988 15.553 15.738-.112-3.542-1.556-15.226-15.553-15.738zm40.104-.002c-13.852.49-15.061 11.933-15.085 15.62 7.555-1.89 13.465-7.963 15.085-15.62zM24 19a6 6 0 100 12 6 6 0 000-12zm0-15.5c-9.874 0-18.137 7.017-20.07 16.326 2.588-1.28 10.342-4.659 20.07-4.659 9.729 0 17.483 3.38 20.07 4.66C42.138 10.516 33.875 3.5 24 3.5z">
			</path>
			<path d="M24 46c12.15 0 22-9.85 22-22S36.15 2 24 2 2 11.85 2 24s9.85 22 22 22zm0-2C12.954 44 4 35.046 4 24S12.954 4 24 4s20 8.954 20 20-8.954 20-20 20z" fill-rule="nonzero">
			</path>
		</g>
	</g>
</svg>
