<svg t="1684203754765" class="icon" viewBox="0 0 1024 1024" version="1.1" xmlns="http://www.w3.org/2000/svg" p-id="6545" width="200" height="200"><path d="M0 512.006247c0 282.772283 229.233964 511.993753 512.006247 511.993753 282.772283 0 511.993753-229.22147 511.993753-511.993753C1024 229.233964 794.77853 0 512.006247 0 229.233964 0 0 229.233964 0 512.006247z m53.063533 0a459.080152 459.080152 0 0 1 881.839209-178.669302A459.067657 459.067657 0 0 1 89.109753 690.625572a455.869102 455.869102 0 0 1-36.04622-178.619325z" p-id="6546" data-spm-anchor-id="a313x.7781069.0.i5" class="" fill="#d6d6d6"></path><path d="M289.869078 432.542138a233.856876 233.856876 0 0 1 165.98753-68.718962h257.421233L585.510548 236.0184a26.538014 26.538014 0 0 1 0-37.48307 26.538014 26.538014 0 0 1 37.483071 0L773.150799 348.592555a58.96087 58.96087 0 0 1 0 83.387337L623.031102 582.124578a26.525519 26.525519 0 0 1-37.483071-37.483071l127.72981-127.792281h-257.38375a181.680442 181.680442 0 1 0 0 363.360884h128.516954a26.538014 26.538014 0 0 1 0 53.063533H455.831619A234.656515 234.656515 0 0 1 289.869078 432.542138z" p-id="6547" data-spm-anchor-id="a313x.7781069.0.i7" class="" fill="#8a8a8a"></path></svg>