<svg t="1684209103135" class="icon" viewBox="0 0 1024 1024" version="1.1" xmlns="http://www.w3.org/2000/svg" p-id="3918" data-spm-anchor-id="a313x.7781069.0.i3" width="200" height="200"><path d="M512.006247 0C229.233964 0 0 229.233964 0 512.006247c0 282.772283 229.233964 511.993753 512.006247 511.993753 282.772283 0 511.993753-229.22147 511.993753-511.993753C1024 229.233964 794.77853 0 512.006247 0z m422.896495 690.625572a460.754396 460.754396 0 1 1 36.033725-178.669302 457.443391 457.443391 0 0 1-36.033725 178.669302z" p-id="3919" data-spm-anchor-id="a313x.7781069.0.i0" class="" fill="#d6d6d6"></path><path d="M734.155911 432.542138a233.856876 233.856876 0 0 0-165.98753-68.718962h-257.38375L438.551924 236.0184a26.538014 26.538014 0 0 0 0-37.48307 26.538014 26.538014 0 0 0-37.483071 0L250.849201 348.592555a58.96087 58.96087 0 0 0 0 83.387337l150.119697 150.144686a26.525519 26.525519 0 0 0 37.483071-37.483071L310.722159 416.849226h257.446222a181.680442 181.680442 0 1 1 0 363.360884h-128.566931a26.538014 26.538014 0 1 0 0 53.063533h128.566931a234.656515 234.656515 0 0 0 165.98753-400.731505z" p-id="3920" data-spm-anchor-id="a313x.7781069.0.i1" class="" fill="#8a8a8a"></path></svg>