<svg t="1720409077060" class="icon" viewBox="0 0 1024 1024" version="1.1" xmlns="http://www.w3.org/2000/svg" p-id="15021" width="20" height="20"><path d="M928 64a32 32 0 0 1 32 32v768a32 32 0 0 1-32 32H96a32 32 0 0 1-32-32V96a32 32 0 0 1 32-32h832z m-96 96H192a32 32 0 0 0-32 32v576a32 32 0 0 0 32 32h640a32 32 0 0 0 32-32V192a32 32 0 0 0-32-32zM224 896h576v96H224z" fill="#ffffff" p-id="15022"></path><path d="M650.88 425.44l-192.192 192.288c11.2 39.296 0 84.192-30.848 115.072a120.32 120.32 0 0 1-136.064 23.872l79.968-80a39.84 39.84 0 0 0 0-56.128 39.776 39.776 0 0 0-56.096 0l-79.968 80c-21.024-44.928-14.016-99.68 23.84-136.16 30.88-30.88 75.744-40.704 115.008-30.88l190.784-190.88c-11.232-39.296 0-84.192 30.848-115.072a118.752 118.752 0 0 1 136.032-23.84l-79.936 80a39.84 39.84 0 0 0 0 56.128 39.776 39.776 0 0 0 56.096 0l79.968-80c21.024 44.896 14.016 99.648-23.84 136.128-29.472 30.88-74.368 40.704-113.6 29.472z" fill="#ffffff" p-id="15023"></path></svg>