<?xml version="1.0" encoding="utf-8"?>
<!-- Generator: Adobe Illustrator 23.0.3, SVG Export Plug-In . SVG Version: 6.00 Build 0)  -->
<svg version="1.1" id="pic_1" xmlns="http://www.w3.org/2000/svg" xmlns:xlink="http://www.w3.org/1999/xlink" x="0px" y="0px"
	 viewBox="0 0 80.05 25.59" style="enable-background:new 0 0 80.05 25.59;" xml:space="preserve">
<style type="text/css">
	.st0{fill-rule:evenodd;clip-rule:evenodd;fill:#FFFFFF;}
	.st1{fill:#FFFFFF;}
</style>
<g>
	<g>
		<polygon class="st0" points="42.56,4.81 45.39,7.65 42.56,10.48 39.72,7.65 		"/>
		<g>
			<polygon class="st1" points="42.56,13.6 40.86,11.9 40.86,20.78 44.25,20.78 44.25,11.9 			"/>
			<polygon class="st1" points="52.27,5.38 46.24,5.38 48.51,7.65 47.39,8.77 52.27,8.77 			"/>
			<polygon class="st1" points="38.87,5.38 17.8,5.38 17.8,14.81 28.32,14.81 28.32,17.42 3.4,17.42 3.4,14.91 13.92,14.91 
				13.92,11.58 3.4,11.58 3.4,8.73 13.92,8.73 13.92,5.38 0,5.38 0,20.78 31.72,20.78 31.72,11.42 21.16,11.42 21.16,8.77 
				37.72,8.77 36.6,7.65 			"/>
		</g>
	</g>
	<g>
		<path class="st1" d="M65.56,13.92c0.27,0.63,0.4,1.38,0.4,2.25v0.31c0,1.51-0.47,2.57-1.41,3.2c-0.94,0.63-1.98,0.94-3.11,0.94
			c-1.08,0-2.07-0.36-2.97-1.06c-0.9-0.71-1.35-2.11-1.35-4.21h3.23c0,0.06,0,0.12-0.01,0.19c-0.01,0.07-0.01,0.14-0.01,0.21
			c0,0.02-0.01,0.03-0.02,0.05c0,0.07,0,0.15-0.01,0.22c-0.01,0.07-0.01,0.14-0.01,0.2c0,0.47,0.08,0.89,0.24,1.26
			c0.16,0.37,0.41,0.55,0.75,0.55c0.56,0,0.94-0.13,1.14-0.39s0.3-0.85,0.3-1.78c0-0.87-0.2-1.43-0.59-1.68
			c-0.39-0.25-1.14-0.38-2.25-0.38v-2.3c0.05,0,0.08,0,0.12,0c0.04,0,0.08,0,0.12,0c0.03,0.02,0.06,0.02,0.1,0.02
			c0.04,0,0.08,0,0.12,0c0.56,0,1.06-0.11,1.48-0.33c0.43-0.22,0.67-0.8,0.73-1.75c0-0.38-0.08-0.74-0.25-1.06
			c-0.17-0.33-0.46-0.49-0.87-0.49c-0.38,0-0.66,0.17-0.84,0.51c-0.18,0.34-0.27,0.72-0.27,1.15c0,0.05,0,0.08,0,0.12
			s0.01,0.08,0.02,0.12c0,0.05,0,0.09,0,0.13s0,0.09,0,0.13h-3.23c0-0.03,0-0.06-0.01-0.09c-0.01-0.03-0.01-0.07-0.01-0.11
			c0-0.03,0-0.06-0.01-0.09c-0.01-0.03-0.01-0.06-0.01-0.09c0-0.07,0-0.15,0-0.22c0-0.07,0.01-0.15,0.02-0.24
			c0.09-0.96,0.48-1.84,1.16-2.64c0.69-0.8,1.8-1.2,3.33-1.2c1.18,0,2.15,0.33,2.91,0.97c0.76,0.65,1.14,1.52,1.14,2.61
			c0,0.1,0,0.21,0,0.31c0,0.1-0.01,0.21-0.02,0.31c-0.05,0.61-0.2,1.18-0.48,1.72c-0.27,0.54-0.77,0.91-1.5,1.1
			C64.65,12.79,65.29,13.29,65.56,13.92z"/>
		<path class="st1" d="M67.2,17.82h2.43v2.51H67.2V17.82z"/>
		<path class="st1" d="M71.21,9.28c0-0.19,0.01-0.4,0.05-0.63c0.03-0.23,0.08-0.46,0.15-0.7c0.21-0.59,0.61-1.13,1.22-1.63
			c0.61-0.49,1.57-0.74,2.9-0.74c1.8,0,3.01,0.4,3.61,1.18c0.61,0.79,0.91,1.73,0.91,2.82v7.05c0,1.61-0.46,2.7-1.38,3.28
			c-0.92,0.58-2.02,0.86-3.29,0.86c-1.54-0.07-2.61-0.46-3.23-1.16c-0.62-0.7-0.93-1.59-0.93-2.67L71.21,9.28L71.21,9.28z
			 M76.41,18.03c0.17-0.21,0.25-0.77,0.25-1.71V9.9c0-0.55-0.07-0.99-0.2-1.34c-0.13-0.35-0.44-0.52-0.93-0.52
			c-0.46,0-0.75,0.17-0.89,0.52c-0.13,0.35-0.2,0.79-0.2,1.34v6.43c0,0.69,0.08,1.2,0.25,1.53c0.17,0.33,0.45,0.49,0.83,0.49
			C75.94,18.34,76.24,18.24,76.41,18.03z"/>
	</g>
</g>
</svg>
